<svg width="24" height="24" viewBox="0 0 24 24" fill="none" xmlns="http://www.w3.org/2000/svg">
<path d="M14.1084 11.1986L15.4826 8.9235L19.1866 14.5524L19.1883 15.6326L19.1762 8.19914C19.1674 8.01746 19.0686 7.85117 18.9108 7.75316L12.2422 4.0106C12.0862 3.93579 11.8884 3.93659 11.7328 4.01294C11.7118 4.02327 11.692 4.03441 11.673 4.04659L11.6498 4.06086L5.17698 7.72074L5.15182 7.73182C5.11954 7.74634 5.08687 7.76473 5.05623 7.78614C4.93353 7.87203 4.852 7.99901 4.82564 8.14143C4.82167 8.16302 4.81877 8.18499 4.81738 8.20714L4.82753 14.2646L8.27759 9.04716C8.71197 8.35528 9.65835 8.13245 10.5369 8.14457L11.568 8.17114L5.49256 17.6777L6.20873 18.0801L12.357 8.1808L15.0746 8.17114L8.94212 18.3202L11.4976 19.7544L11.8029 19.9257C11.9321 19.977 12.0843 19.9795 12.2146 19.9336L18.9768 16.1101L17.684 16.841L14.1084 11.1986ZM14.6327 18.5664L12.0516 14.6138L13.6272 12.0051L17.0169 17.2182L14.6327 18.5664Z" fill="#2D374B"/>
<path d="M12.052 14.6135L14.6331 18.5661L17.0174 17.218L13.6277 12.0049L12.052 14.6135Z" fill="#28A0F0"/>
<path d="M19.1886 15.6327L19.1868 14.5525L15.4828 8.92358L14.1086 11.1987L17.6843 16.8411L18.9772 16.1101C19.104 16.0097 19.1807 15.8622 19.1888 15.7031L19.1886 15.6327Z" fill="#28A0F0"/>
<path d="M3.66724 16.6512L5.49296 17.6776L11.5684 8.17109L10.5373 8.14451C9.65875 8.13239 8.71237 8.35522 8.27799 9.0471L4.82793 14.2646L3.66724 16.0046V16.6512Z" fill="white"/>
<path d="M15.0747 8.17114L12.3572 8.1808L6.20898 18.0801L8.35792 19.2874L8.94237 18.3202L15.0747 8.17114Z" fill="white"/>
<path d="M20.3338 8.1575C20.3111 7.603 20.0034 7.09532 19.5214 6.79977L12.7655 3.0091C12.2887 2.77482 11.693 2.77451 11.2154 3.00891C11.159 3.03666 4.64539 6.72256 4.64539 6.72256C4.55529 6.7647 4.46846 6.81497 4.38675 6.872C3.95647 7.1729 3.69416 7.64047 3.66724 8.15418V16.0048L4.82793 14.2648L4.81778 8.20727C4.81917 8.18512 4.82201 8.16334 4.82604 8.14181C4.85221 7.99926 4.9338 7.8721 5.05663 7.78621C5.08727 7.7648 11.7121 4.02329 11.7332 4.01301C11.8889 3.93666 12.0868 3.93593 12.2426 4.01067L18.9112 7.7533C19.0689 7.8513 19.1678 8.01754 19.1766 8.19927V15.703C19.1685 15.8622 19.1041 16.0096 18.9772 16.1101L17.6844 16.8411L17.0173 17.2183L14.633 18.5665L12.215 19.9337C12.0847 19.9796 11.9325 19.9771 11.8033 19.9258L8.94252 18.3203L8.35813 19.2874L10.9291 20.7317C11.0141 20.7788 11.0899 20.8206 11.1521 20.8547C11.2483 20.9074 11.3139 20.9426 11.3371 20.9535C11.5198 21.0401 11.7827 21.0905 12.0196 21.0905C12.2368 21.0905 12.4486 21.0516 12.6491 20.975L19.6723 17.0064C20.0754 16.7017 20.3125 16.2422 20.3339 15.7443V8.1575H20.3338Z" fill="#96BEDC"/>
</svg>
