<svg width="24" height="24" viewBox="0 0 24 24" fill="none" xmlns="http://www.w3.org/2000/svg">
<g clip-path="url(#clip0_82_13652)">
<path d="M18.1002 5.43091H5.80347V16.6543H18.1002V5.43091Z" fill="white"/>
<path fill-rule="evenodd" clip-rule="evenodd" d="M22.0071 12.0132C22.0071 17.5361 17.53 22.0132 12.0071 22.0132C6.48423 22.0132 2.00708 17.5361 2.00708 12.0132C2.00708 6.49033 6.48423 2.01318 12.0071 2.01318C17.53 2.01318 22.0071 6.49033 22.0071 12.0132ZM9.17336 15.9927H7.23265C6.82484 15.9927 6.6234 15.9927 6.50058 15.9141C6.36792 15.8281 6.28685 15.6856 6.27703 15.5284C6.26965 15.3835 6.37038 15.2066 6.57182 14.8528L11.3637 6.40646C11.5676 6.04779 11.6708 5.86846 11.801 5.80213C11.941 5.73089 12.1081 5.73089 12.2481 5.80213C12.3783 5.86846 12.4815 6.04779 12.6853 6.40646L13.6705 8.12609L13.6755 8.13486C13.8957 8.51964 14.0074 8.71477 14.0561 8.91956C14.1102 9.14312 14.1102 9.37895 14.0561 9.6025C14.007 9.80886 13.8965 10.0054 13.6729 10.396L11.1559 14.8454L11.1493 14.8568C10.9277 15.2448 10.8153 15.4414 10.6596 15.5897C10.4901 15.7519 10.2862 15.8698 10.0627 15.9362C9.85876 15.9927 9.6303 15.9927 9.17336 15.9927ZM14.0743 15.9927H16.8551C17.2654 15.9927 17.4718 15.9927 17.5947 15.9117C17.7273 15.8257 17.8108 15.6807 17.8183 15.5236C17.8253 15.3834 17.7268 15.2133 17.5337 14.8801C17.5271 14.8688 17.5204 14.8572 17.5136 14.8455L16.1207 12.4626L16.1048 12.4358C15.9091 12.1048 15.8103 11.9376 15.6834 11.873C15.5434 11.8017 15.3787 11.8017 15.2388 11.873C15.111 11.9393 15.0078 12.1137 14.8039 12.465L13.4159 14.8479L13.4112 14.8562C13.208 15.2069 13.1065 15.3822 13.1138 15.526C13.1236 15.6832 13.2047 15.8281 13.3373 15.9141C13.4577 15.9927 13.6641 15.9927 14.0743 15.9927Z" fill="#E84142"/>
</g>
<defs>
<clipPath id="clip0_82_13652">
<rect x="2.00049" y="2" width="20" height="20" rx="10" fill="white"/>
</clipPath>
</defs>
</svg>
