<?xml version="1.0" encoding="UTF-8"?>
<svg xmlns="http://www.w3.org/2000/svg" xmlns:xlink="http://www.w3.org/1999/xlink" width="20px" height="20px" viewBox="0 0 20 20" version="1.1">
<defs>
<filter id="alpha" filterUnits="objectBoundingBox" x="0%" y="0%" width="100%" height="100%">
  <feColorMatrix type="matrix" in="SourceGraphic" values="0 0 0 0 1 0 0 0 0 1 0 0 0 0 1 0 0 0 1 0"/>
</filter>
<mask id="mask0">
  <g filter="url(#alpha)">
<rect x="0" y="0" width="20" height="20" style="fill:rgb(0%,0%,0%);fill-opacity:0.00784314;stroke:none;"/>
  </g>
</mask>
<clipPath id="clip1">
  <rect x="0" y="0" width="20" height="20"/>
</clipPath>
<g id="surface5" clip-path="url(#clip1)">
<path style=" stroke:none;fill-rule:evenodd;fill:rgb(84.313725%,87.843137%,99.215686%);fill-opacity:1;" d="M 7.398438 -0.0664062 C 7.535156 -0.0664062 7.667969 -0.0664062 7.800781 -0.0664062 C 7.667969 0.109375 7.535156 0.109375 7.398438 -0.0664062 Z M 7.398438 -0.0664062 "/>
</g>
<mask id="mask1">
  <g filter="url(#alpha)">
<rect x="0" y="0" width="20" height="20" style="fill:rgb(0%,0%,0%);fill-opacity:0.929412;stroke:none;"/>
  </g>
</mask>
<clipPath id="clip2">
  <rect x="0" y="0" width="20" height="20"/>
</clipPath>
<g id="surface8" clip-path="url(#clip2)">
<path style=" stroke:none;fill-rule:evenodd;fill:rgb(84.705882%,88.235294%,99.215686%);fill-opacity:1;" d="M 8.601562 -0.0664062 C 9.488281 -0.0664062 10.378906 -0.0664062 11.265625 -0.0664062 C 11.964844 0.109375 12.675781 0.285156 13.398438 0.464844 C 13.863281 0.71875 14.351562 0.941406 14.867188 1.132812 C 16.089844 1.878906 17.15625 2.8125 18.066406 3.933594 C 18.058594 4.136719 18.144531 4.269531 18.332031 4.332031 C 18.414062 4.589844 18.546875 4.8125 18.734375 5 C 18.886719 5.488281 19.109375 5.929688 19.398438 6.332031 C 19.414062 6.636719 19.5 6.90625 19.667969 7.132812 C 19.632812 7.347656 19.675781 7.523438 19.800781 7.667969 C 19.761719 7.921875 19.804688 8.144531 19.933594 8.332031 C 19.933594 9.398438 19.933594 10.464844 19.933594 11.535156 C 19.777344 11.902344 19.691406 12.304688 19.667969 12.734375 C 19.5 12.960938 19.414062 13.230469 19.398438 13.535156 C 19.28125 13.628906 19.234375 13.761719 19.265625 13.933594 C 19.15625 13.980469 19.109375 14.066406 19.132812 14.199219 C 19.023438 14.246094 18.976562 14.335938 19 14.464844 C 18.886719 14.511719 18.84375 14.601562 18.867188 14.734375 C 18.753906 14.777344 18.710938 14.867188 18.734375 15 C 18.644531 15 18.601562 15.042969 18.601562 15.132812 C 18.488281 15.179688 18.445312 15.269531 18.464844 15.398438 C 18.378906 15.398438 18.332031 15.445312 18.332031 15.535156 C 18.222656 15.578125 18.175781 15.667969 18.199219 15.800781 C 18.109375 15.800781 18.066406 15.84375 18.066406 15.933594 C 17.878906 15.996094 17.789062 16.128906 17.800781 16.332031 C 17.710938 16.332031 17.667969 16.378906 17.667969 16.464844 C 17.578125 16.464844 17.535156 16.511719 17.535156 16.601562 C 17.445312 16.601562 17.398438 16.644531 17.398438 16.734375 C 17.3125 16.734375 17.265625 16.777344 17.265625 16.867188 C 17.175781 16.867188 17.132812 16.910156 17.132812 17 C 17.042969 17 17 17.042969 17 17.132812 C 16.910156 17.132812 16.867188 17.175781 16.867188 17.265625 C 16.777344 17.265625 16.734375 17.3125 16.734375 17.398438 C 16.644531 17.398438 16.601562 17.445312 16.601562 17.535156 C 16.511719 17.535156 16.464844 17.578125 16.464844 17.667969 C 16.378906 17.667969 16.332031 17.710938 16.332031 17.800781 C 16.128906 17.789062 15.996094 17.878906 15.933594 18.066406 C 15.84375 18.066406 15.800781 18.109375 15.800781 18.199219 C 15.667969 18.175781 15.578125 18.222656 15.535156 18.332031 C 15.445312 18.332031 15.398438 18.378906 15.398438 18.464844 C 15.269531 18.445312 15.179688 18.488281 15.132812 18.601562 C 15.042969 18.601562 15 18.644531 15 18.734375 C 14.867188 18.710938 14.777344 18.753906 14.734375 18.867188 C 14.601562 18.84375 14.511719 18.886719 14.464844 19 C 14.335938 18.976562 14.246094 19.023438 14.199219 19.132812 C 14.066406 19.109375 13.980469 19.15625 13.933594 19.265625 C 13.761719 19.234375 13.628906 19.28125 13.535156 19.398438 C 13.230469 19.414062 12.960938 19.5 12.734375 19.667969 C 12.304688 19.691406 11.902344 19.777344 11.535156 19.933594 C 10.464844 19.933594 9.398438 19.933594 8.332031 19.933594 C 8.144531 19.804688 7.921875 19.761719 7.667969 19.800781 C 7.523438 19.675781 7.347656 19.632812 7.132812 19.667969 C 6.90625 19.5 6.636719 19.414062 6.332031 19.398438 C 5.929688 19.109375 5.488281 18.886719 5 18.734375 C 4.8125 18.546875 4.589844 18.414062 4.332031 18.332031 C 4.269531 18.144531 4.136719 18.058594 3.933594 18.066406 C 3.082031 17.351562 2.328125 16.550781 1.667969 15.667969 C 1.609375 15.503906 1.519531 15.371094 1.398438 15.265625 C 1.34375 15.105469 1.253906 14.972656 1.132812 14.867188 C 1.15625 14.734375 1.113281 14.644531 1 14.601562 C 0.980469 14.378906 0.890625 14.203125 0.734375 14.066406 C 0.757812 13.933594 0.710938 13.84375 0.601562 13.800781 C 0.632812 13.628906 0.585938 13.496094 0.464844 13.398438 C 0.382812 12.925781 0.25 12.484375 0.0664062 12.066406 C 0.105469 11.769531 0.0625 11.5 -0.0664062 11.265625 C -0.0664062 10.378906 -0.0664062 9.488281 -0.0664062 8.601562 C 0.125 8.050781 0.257812 7.472656 0.332031 6.867188 C 0.453125 6.773438 0.5 6.640625 0.464844 6.464844 C 1.773438 3.558594 3.910156 1.515625 6.867188 0.332031 C 7.472656 0.257812 8.050781 0.125 8.601562 -0.0664062 Z M 8.601562 -0.0664062 "/>
</g>
<mask id="mask2">
  <g filter="url(#alpha)">
<rect x="0" y="0" width="20" height="20" style="fill:rgb(0%,0%,0%);fill-opacity:0.00784314;stroke:none;"/>
  </g>
</mask>
<clipPath id="clip3">
  <rect x="0" y="0" width="20" height="20"/>
</clipPath>
<g id="surface11" clip-path="url(#clip3)">
<path style=" stroke:none;fill-rule:evenodd;fill:rgb(83.921569%,87.843137%,98.823529%);fill-opacity:1;" d="M 6.867188 0.199219 C 6.964844 0.0585938 7.101562 0.0351562 7.265625 0.132812 C 7.140625 0.199219 7.007812 0.21875 6.867188 0.199219 Z M 6.867188 0.199219 "/>
</g>
<mask id="mask3">
  <g filter="url(#alpha)">
<rect x="0" y="0" width="20" height="20" style="fill:rgb(0%,0%,0%);fill-opacity:0.00784314;stroke:none;"/>
  </g>
</mask>
<clipPath id="clip4">
  <rect x="0" y="0" width="20" height="20"/>
</clipPath>
<g id="surface14" clip-path="url(#clip4)">
<path style=" stroke:none;fill-rule:evenodd;fill:rgb(84.705882%,88.235294%,99.607843%);fill-opacity:1;" d="M 6.867188 0.199219 C 6.867188 0.246094 6.867188 0.289062 6.867188 0.332031 C 6.511719 0.289062 6.511719 0.246094 6.867188 0.199219 Z M 6.867188 0.199219 "/>
</g>
<mask id="mask4">
  <g filter="url(#alpha)">
<rect x="0" y="0" width="20" height="20" style="fill:rgb(0%,0%,0%);fill-opacity:0.00784314;stroke:none;"/>
  </g>
</mask>
<clipPath id="clip5">
  <rect x="0" y="0" width="20" height="20"/>
</clipPath>
<g id="surface17" clip-path="url(#clip5)">
<path style=" stroke:none;fill-rule:evenodd;fill:rgb(84.313725%,87.843137%,99.215686%);fill-opacity:1;" d="M 13.398438 0.464844 C 13.453125 0.328125 13.542969 0.308594 13.667969 0.398438 C 13.585938 0.460938 13.5 0.484375 13.398438 0.464844 Z M 13.398438 0.464844 "/>
</g>
<mask id="mask5">
  <g filter="url(#alpha)">
<rect x="0" y="0" width="20" height="20" style="fill:rgb(0%,0%,0%);fill-opacity:0.0117647;stroke:none;"/>
  </g>
</mask>
<clipPath id="clip6">
  <rect x="0" y="0" width="20" height="20"/>
</clipPath>
<g id="surface20" clip-path="url(#clip6)">
<path style=" stroke:none;fill-rule:evenodd;fill:rgb(83.921569%,87.843137%,98.823529%);fill-opacity:1;" d="M 14.867188 1 C 15.042969 1.089844 15.042969 1.089844 14.867188 1 Z M 14.867188 1 "/>
</g>
<mask id="mask6">
  <g filter="url(#alpha)">
<rect x="0" y="0" width="20" height="20" style="fill:rgb(0%,0%,0%);fill-opacity:0.00784314;stroke:none;"/>
  </g>
</mask>
<clipPath id="clip7">
  <rect x="0" y="0" width="20" height="20"/>
</clipPath>
<g id="surface23" clip-path="url(#clip7)">
<path style=" stroke:none;fill-rule:evenodd;fill:rgb(84.313725%,88.235294%,99.215686%);fill-opacity:1;" d="M 4.199219 1.398438 C 4.378906 1.488281 4.378906 1.488281 4.199219 1.398438 Z M 4.199219 1.398438 "/>
</g>
<mask id="mask7">
  <g filter="url(#alpha)">
<rect x="0" y="0" width="20" height="20" style="fill:rgb(0%,0%,0%);fill-opacity:0.0117647;stroke:none;"/>
  </g>
</mask>
<clipPath id="clip8">
  <rect x="0" y="0" width="20" height="20"/>
</clipPath>
<g id="surface26" clip-path="url(#clip8)">
<path style=" stroke:none;fill-rule:evenodd;fill:rgb(84.313725%,88.235294%,99.215686%);fill-opacity:1;" d="M 18.199219 3.933594 C 18.109375 3.753906 18.109375 3.753906 18.199219 3.933594 Z M 18.199219 3.933594 "/>
</g>
<mask id="mask8">
  <g filter="url(#alpha)">
<rect x="0" y="0" width="20" height="20" style="fill:rgb(0%,0%,0%);fill-opacity:0.00392157;stroke:none;"/>
  </g>
</mask>
<clipPath id="clip9">
  <rect x="0" y="0" width="20" height="20"/>
</clipPath>
<g id="surface29" clip-path="url(#clip9)">
<path style=" stroke:none;fill-rule:evenodd;fill:rgb(84.313725%,88.235294%,99.215686%);fill-opacity:1;" d="M 18.199219 3.933594 C 18.378906 4.023438 18.378906 4.023438 18.199219 3.933594 Z M 18.199219 3.933594 "/>
</g>
<mask id="mask9">
  <g filter="url(#alpha)">
<rect x="0" y="0" width="20" height="20" style="fill:rgb(0%,0%,0%);fill-opacity:0.00784314;stroke:none;"/>
  </g>
</mask>
<clipPath id="clip10">
  <rect x="0" y="0" width="20" height="20"/>
</clipPath>
<g id="surface32" clip-path="url(#clip10)">
<path style=" stroke:none;fill-rule:evenodd;fill:rgb(84.313725%,88.235294%,99.215686%);fill-opacity:1;" d="M 1.398438 4.199219 C 1.578125 4.289062 1.578125 4.289062 1.398438 4.199219 Z M 1.398438 4.199219 "/>
</g>
<mask id="mask10">
  <g filter="url(#alpha)">
<rect x="0" y="0" width="20" height="20" style="fill:rgb(0%,0%,0%);fill-opacity:0.0117647;stroke:none;"/>
  </g>
</mask>
<clipPath id="clip11">
  <rect x="0" y="0" width="20" height="20"/>
</clipPath>
<g id="surface35" clip-path="url(#clip11)">
<path style=" stroke:none;fill-rule:evenodd;fill:rgb(83.921569%,87.843137%,98.823529%);fill-opacity:1;" d="M 18.464844 4.332031 C 18.378906 4.15625 18.378906 4.15625 18.464844 4.332031 Z M 18.464844 4.332031 "/>
</g>
<mask id="mask11">
  <g filter="url(#alpha)">
<rect x="0" y="0" width="20" height="20" style="fill:rgb(0%,0%,0%);fill-opacity:0.00784314;stroke:none;"/>
  </g>
</mask>
<clipPath id="clip12">
  <rect x="0" y="0" width="20" height="20"/>
</clipPath>
<g id="surface38" clip-path="url(#clip12)">
<path style=" stroke:none;fill-rule:evenodd;fill:rgb(84.313725%,88.235294%,99.215686%);fill-opacity:1;" d="M 18.464844 4.332031 C 18.644531 4.421875 18.644531 4.421875 18.464844 4.332031 Z M 18.464844 4.332031 "/>
</g>
<mask id="mask12">
  <g filter="url(#alpha)">
<rect x="0" y="0" width="20" height="20" style="fill:rgb(0%,0%,0%);fill-opacity:0.00784314;stroke:none;"/>
  </g>
</mask>
<clipPath id="clip13">
  <rect x="0" y="0" width="20" height="20"/>
</clipPath>
<g id="surface41" clip-path="url(#clip13)">
<path style=" stroke:none;fill-rule:evenodd;fill:rgb(84.313725%,88.235294%,99.215686%);fill-opacity:1;" d="M 18.867188 5 C 18.824219 5 18.777344 5 18.734375 5 C 18.777344 4.644531 18.824219 4.644531 18.867188 5 Z M 18.867188 5 "/>
</g>
<mask id="mask13">
  <g filter="url(#alpha)">
<rect x="0" y="0" width="20" height="20" style="fill:rgb(0%,0%,0%);fill-opacity:0.00784314;stroke:none;"/>
  </g>
</mask>
<clipPath id="clip14">
  <rect x="0" y="0" width="20" height="20"/>
</clipPath>
<g id="surface44" clip-path="url(#clip14)">
<path style=" stroke:none;fill-rule:evenodd;fill:rgb(84.313725%,88.235294%,99.215686%);fill-opacity:1;" d="M 18.867188 5 C 19.042969 5.089844 19.042969 5.089844 18.867188 5 Z M 18.867188 5 "/>
</g>
<mask id="mask14">
  <g filter="url(#alpha)">
<rect x="0" y="0" width="20" height="20" style="fill:rgb(0%,0%,0%);fill-opacity:0.00784314;stroke:none;"/>
  </g>
</mask>
<clipPath id="clip15">
  <rect x="0" y="0" width="20" height="20"/>
</clipPath>
<g id="surface47" clip-path="url(#clip15)">
<path style=" stroke:none;fill-rule:evenodd;fill:rgb(83.921569%,87.843137%,98.823529%);fill-opacity:1;" d="M 19 5.265625 C 19.175781 5.355469 19.175781 5.355469 19 5.265625 Z M 19 5.265625 "/>
</g>
<mask id="mask15">
  <g filter="url(#alpha)">
<rect x="0" y="0" width="20" height="20" style="fill:rgb(0%,0%,0%);fill-opacity:0.00784314;stroke:none;"/>
  </g>
</mask>
<clipPath id="clip16">
  <rect x="0" y="0" width="20" height="20"/>
</clipPath>
<g id="surface50" clip-path="url(#clip16)">
<path style=" stroke:none;fill-rule:evenodd;fill:rgb(83.921569%,87.843137%,98.823529%);fill-opacity:1;" d="M 19.132812 5.535156 C 19.3125 5.621094 19.3125 5.621094 19.132812 5.535156 Z M 19.132812 5.535156 "/>
</g>
<mask id="mask16">
  <g filter="url(#alpha)">
<rect x="0" y="0" width="20" height="20" style="fill:rgb(0%,0%,0%);fill-opacity:0.00784314;stroke:none;"/>
  </g>
</mask>
<clipPath id="clip17">
  <rect x="0" y="0" width="20" height="20"/>
</clipPath>
<g id="surface53" clip-path="url(#clip17)">
<path style=" stroke:none;fill-rule:evenodd;fill:rgb(84.313725%,88.235294%,99.215686%);fill-opacity:1;" d="M 19.398438 6.332031 C 19.382812 6.234375 19.40625 6.144531 19.464844 6.066406 C 19.558594 6.191406 19.535156 6.28125 19.398438 6.332031 Z M 19.398438 6.332031 "/>
</g>
<mask id="mask17">
  <g filter="url(#alpha)">
<rect x="0" y="0" width="20" height="20" style="fill:rgb(0%,0%,0%);fill-opacity:0.00784314;stroke:none;"/>
  </g>
</mask>
<clipPath id="clip18">
  <rect x="0" y="0" width="20" height="20"/>
</clipPath>
<g id="surface56" clip-path="url(#clip18)">
<path style=" stroke:none;fill-rule:evenodd;fill:rgb(84.313725%,87.843137%,99.215686%);fill-opacity:1;" d="M 0.464844 6.464844 C 0.328125 6.414062 0.308594 6.324219 0.398438 6.199219 C 0.460938 6.277344 0.484375 6.367188 0.464844 6.464844 Z M 0.464844 6.464844 "/>
</g>
<mask id="mask18">
  <g filter="url(#alpha)">
<rect x="0" y="0" width="20" height="20" style="fill:rgb(0%,0%,0%);fill-opacity:0.00784314;stroke:none;"/>
  </g>
</mask>
<clipPath id="clip19">
  <rect x="0" y="0" width="20" height="20"/>
</clipPath>
<g id="surface59" clip-path="url(#clip19)">
<path style=" stroke:none;fill-rule:evenodd;fill:rgb(84.313725%,88.235294%,99.215686%);fill-opacity:1;" d="M 0.332031 6.867188 C 0.289062 6.867188 0.246094 6.867188 0.199219 6.867188 C 0.246094 6.511719 0.289062 6.511719 0.332031 6.867188 Z M 0.332031 6.867188 "/>
</g>
<mask id="mask19">
  <g filter="url(#alpha)">
<rect x="0" y="0" width="20" height="20" style="fill:rgb(0%,0%,0%);fill-opacity:0.00784314;stroke:none;"/>
  </g>
</mask>
<clipPath id="clip20">
  <rect x="0" y="0" width="20" height="20"/>
</clipPath>
<g id="surface62" clip-path="url(#clip20)">
<path style=" stroke:none;fill-rule:evenodd;fill:rgb(84.313725%,87.843137%,99.215686%);fill-opacity:1;" d="M 19.667969 7.132812 C 19.648438 6.992188 19.667969 6.859375 19.734375 6.734375 C 19.832031 6.898438 19.808594 7.035156 19.667969 7.132812 Z M 19.667969 7.132812 "/>
</g>
<mask id="mask20">
  <g filter="url(#alpha)">
<rect x="0" y="0" width="20" height="20" style="fill:rgb(0%,0%,0%);fill-opacity:0.00784314;stroke:none;"/>
  </g>
</mask>
<clipPath id="clip21">
  <rect x="0" y="0" width="20" height="20"/>
</clipPath>
<g id="surface65" clip-path="url(#clip21)">
<path style=" stroke:none;fill-rule:evenodd;fill:rgb(84.313725%,87.843137%,99.215686%);fill-opacity:1;" d="M 0.199219 6.867188 C 0.21875 7.007812 0.199219 7.140625 0.132812 7.265625 C 0.0351562 7.101562 0.0585938 6.964844 0.199219 6.867188 Z M 0.199219 6.867188 "/>
</g>
<mask id="mask21">
  <g filter="url(#alpha)">
<rect x="0" y="0" width="20" height="20" style="fill:rgb(0%,0%,0%);fill-opacity:0.0117647;stroke:none;"/>
  </g>
</mask>
<clipPath id="clip22">
  <rect x="0" y="0" width="20" height="20"/>
</clipPath>
<g id="surface68" clip-path="url(#clip22)">
<path style=" stroke:none;fill-rule:evenodd;fill:rgb(84.313725%,87.843137%,99.215686%);fill-opacity:1;" d="M 19.933594 7.265625 C 19.933594 7.398438 19.933594 7.535156 19.933594 7.667969 C 19.890625 7.667969 19.84375 7.667969 19.800781 7.667969 C 19.769531 7.496094 19.8125 7.359375 19.933594 7.265625 Z M 19.933594 7.265625 "/>
</g>
<mask id="mask22">
  <g filter="url(#alpha)">
<rect x="0" y="0" width="20" height="20" style="fill:rgb(0%,0%,0%);fill-opacity:0.00784314;stroke:none;"/>
  </g>
</mask>
<clipPath id="clip23">
  <rect x="0" y="0" width="20" height="20"/>
</clipPath>
<g id="surface71" clip-path="url(#clip23)">
<path style=" stroke:none;fill-rule:evenodd;fill:rgb(84.313725%,87.843137%,99.215686%);fill-opacity:1;" d="M -0.0664062 7.398438 C 0.109375 7.535156 0.109375 7.667969 -0.0664062 7.800781 C -0.0664062 7.667969 -0.0664062 7.535156 -0.0664062 7.398438 Z M -0.0664062 7.398438 "/>
</g>
<mask id="mask23">
  <g filter="url(#alpha)">
<rect x="0" y="0" width="20" height="20" style="fill:rgb(0%,0%,0%);fill-opacity:0.00784314;stroke:none;"/>
  </g>
</mask>
<clipPath id="clip24">
  <rect x="0" y="0" width="20" height="20"/>
</clipPath>
<g id="surface74" clip-path="url(#clip24)">
<path style=" stroke:none;fill-rule:evenodd;fill:rgb(84.313725%,87.843137%,99.215686%);fill-opacity:1;" d="M -0.0664062 12.066406 C -0.0234375 12.066406 0.0234375 12.066406 0.0664062 12.066406 C 0.101562 12.28125 0.0585938 12.457031 -0.0664062 12.601562 C -0.0664062 12.421875 -0.0664062 12.246094 -0.0664062 12.066406 Z M -0.0664062 12.066406 "/>
</g>
<mask id="mask24">
  <g filter="url(#alpha)">
<rect x="0" y="0" width="20" height="20" style="fill:rgb(0%,0%,0%);fill-opacity:0.00784314;stroke:none;"/>
  </g>
</mask>
<clipPath id="clip25">
  <rect x="0" y="0" width="20" height="20"/>
</clipPath>
<g id="surface77" clip-path="url(#clip25)">
<path style=" stroke:none;fill-rule:evenodd;fill:rgb(84.313725%,87.843137%,99.215686%);fill-opacity:1;" d="M 19.933594 12.332031 C 19.933594 12.464844 19.933594 12.601562 19.933594 12.734375 C 19.890625 12.734375 19.84375 12.734375 19.800781 12.734375 C 19.769531 12.5625 19.8125 12.429688 19.933594 12.332031 Z M 19.933594 12.332031 "/>
</g>
<mask id="mask25">
  <g filter="url(#alpha)">
<rect x="0" y="0" width="20" height="20" style="fill:rgb(0%,0%,0%);fill-opacity:0.00784314;stroke:none;"/>
  </g>
</mask>
<clipPath id="clip26">
  <rect x="0" y="0" width="20" height="20"/>
</clipPath>
<g id="surface80" clip-path="url(#clip26)">
<path style=" stroke:none;fill-rule:evenodd;fill:rgb(84.705882%,88.235294%,99.607843%);fill-opacity:1;" d="M 19.667969 12.734375 C 19.710938 12.734375 19.753906 12.734375 19.800781 12.734375 C 19.753906 13.265625 19.710938 13.265625 19.667969 12.734375 Z M 19.667969 12.734375 "/>
</g>
<mask id="mask26">
  <g filter="url(#alpha)">
<rect x="0" y="0" width="20" height="20" style="fill:rgb(0%,0%,0%);fill-opacity:0.00784314;stroke:none;"/>
  </g>
</mask>
<clipPath id="clip27">
  <rect x="0" y="0" width="20" height="20"/>
</clipPath>
<g id="surface83" clip-path="url(#clip27)">
<path style=" stroke:none;fill-rule:evenodd;fill:rgb(84.313725%,88.235294%,99.215686%);fill-opacity:1;" d="M 0.464844 13.398438 C 0.484375 13.5 0.460938 13.585938 0.398438 13.667969 C 0.308594 13.542969 0.328125 13.453125 0.464844 13.398438 Z M 0.464844 13.398438 "/>
</g>
<mask id="mask27">
  <g filter="url(#alpha)">
<rect x="0" y="0" width="20" height="20" style="fill:rgb(0%,0%,0%);fill-opacity:0.00392157;stroke:none;"/>
  </g>
</mask>
<clipPath id="clip28">
  <rect x="0" y="0" width="20" height="20"/>
</clipPath>
<g id="surface86" clip-path="url(#clip28)">
<path style=" stroke:none;fill-rule:evenodd;fill:rgb(84.313725%,87.843137%,99.215686%);fill-opacity:1;" d="M 19.535156 13.535156 C 19.515625 13.433594 19.539062 13.347656 19.601562 13.265625 C 19.691406 13.390625 19.671875 13.480469 19.535156 13.535156 Z M 19.535156 13.535156 "/>
</g>
<mask id="mask28">
  <g filter="url(#alpha)">
<rect x="0" y="0" width="20" height="20" style="fill:rgb(0%,0%,0%);fill-opacity:0.00784314;stroke:none;"/>
  </g>
</mask>
<clipPath id="clip29">
  <rect x="0" y="0" width="20" height="20"/>
</clipPath>
<g id="surface89" clip-path="url(#clip29)">
<path style=" stroke:none;fill-rule:evenodd;fill:rgb(84.313725%,87.843137%,99.215686%);fill-opacity:1;" d="M 19.398438 13.535156 C 19.445312 13.535156 19.488281 13.535156 19.535156 13.535156 C 19.488281 13.890625 19.445312 13.890625 19.398438 13.535156 Z M 19.398438 13.535156 "/>
</g>
<mask id="mask29">
  <g filter="url(#alpha)">
<rect x="0" y="0" width="20" height="20" style="fill:rgb(0%,0%,0%);fill-opacity:0.00392157;stroke:none;"/>
  </g>
</mask>
<clipPath id="clip30">
  <rect x="0" y="0" width="20" height="20"/>
</clipPath>
<g id="surface92" clip-path="url(#clip30)">
<path style=" stroke:none;fill-rule:evenodd;fill:rgb(84.313725%,87.843137%,99.215686%);fill-opacity:1;" d="M 0.601562 13.800781 C 0.601562 13.890625 0.601562 13.976562 0.601562 14.066406 C 0.421875 13.976562 0.421875 13.890625 0.601562 13.800781 Z M 0.601562 13.800781 "/>
</g>
<mask id="mask30">
  <g filter="url(#alpha)">
<rect x="0" y="0" width="20" height="20" style="fill:rgb(0%,0%,0%);fill-opacity:0.00392157;stroke:none;"/>
  </g>
</mask>
<clipPath id="clip31">
  <rect x="0" y="0" width="20" height="20"/>
</clipPath>
<g id="surface95" clip-path="url(#clip31)">
<path style=" stroke:none;fill-rule:evenodd;fill:rgb(84.313725%,87.843137%,99.215686%);fill-opacity:1;" d="M 19.265625 13.933594 C 19.445312 14.023438 19.445312 14.109375 19.265625 14.199219 C 19.265625 14.109375 19.265625 14.023438 19.265625 13.933594 Z M 19.265625 13.933594 "/>
</g>
<mask id="mask31">
  <g filter="url(#alpha)">
<rect x="0" y="0" width="20" height="20" style="fill:rgb(0%,0%,0%);fill-opacity:0.00392157;stroke:none;"/>
  </g>
</mask>
<clipPath id="clip32">
  <rect x="0" y="0" width="20" height="20"/>
</clipPath>
<g id="surface98" clip-path="url(#clip32)">
<path style=" stroke:none;fill-rule:evenodd;fill:rgb(84.313725%,87.843137%,99.215686%);fill-opacity:1;" d="M 0.601562 14.066406 C 0.644531 14.066406 0.6875 14.066406 0.734375 14.066406 C 0.6875 14.421875 0.644531 14.421875 0.601562 14.066406 Z M 0.601562 14.066406 "/>
</g>
<mask id="mask32">
  <g filter="url(#alpha)">
<rect x="0" y="0" width="20" height="20" style="fill:rgb(0%,0%,0%);fill-opacity:0.00784314;stroke:none;"/>
  </g>
</mask>
<clipPath id="clip33">
  <rect x="0" y="0" width="20" height="20"/>
</clipPath>
<g id="surface101" clip-path="url(#clip33)">
<path style=" stroke:none;fill-rule:evenodd;fill:rgb(83.921569%,87.843137%,98.823529%);fill-opacity:1;" d="M 19.132812 14.199219 C 19.175781 14.199219 19.222656 14.199219 19.265625 14.199219 C 19.289062 14.332031 19.246094 14.421875 19.132812 14.464844 C 19.132812 14.378906 19.132812 14.289062 19.132812 14.199219 Z M 19.132812 14.199219 "/>
</g>
<mask id="mask33">
  <g filter="url(#alpha)">
<rect x="0" y="0" width="20" height="20" style="fill:rgb(0%,0%,0%);fill-opacity:0.00392157;stroke:none;"/>
  </g>
</mask>
<clipPath id="clip34">
  <rect x="0" y="0" width="20" height="20"/>
</clipPath>
<g id="surface104" clip-path="url(#clip34)">
<path style=" stroke:none;fill-rule:evenodd;fill:rgb(84.313725%,87.843137%,99.215686%);fill-opacity:1;" d="M 19 14.464844 C 19.042969 14.464844 19.089844 14.464844 19.132812 14.464844 C 19.15625 14.597656 19.113281 14.6875 19 14.734375 C 19 14.644531 19 14.554688 19 14.464844 Z M 19 14.464844 "/>
</g>
<mask id="mask34">
  <g filter="url(#alpha)">
<rect x="0" y="0" width="20" height="20" style="fill:rgb(0%,0%,0%);fill-opacity:0.00392157;stroke:none;"/>
  </g>
</mask>
<clipPath id="clip35">
  <rect x="0" y="0" width="20" height="20"/>
</clipPath>
<g id="surface107" clip-path="url(#clip35)">
<path style=" stroke:none;fill-rule:evenodd;fill:rgb(84.313725%,87.843137%,99.215686%);fill-opacity:1;" d="M 1 14.601562 C 1 14.6875 1 14.777344 1 14.867188 C 0.820312 14.777344 0.820312 14.6875 1 14.601562 Z M 1 14.601562 "/>
</g>
<mask id="mask35">
  <g filter="url(#alpha)">
<rect x="0" y="0" width="20" height="20" style="fill:rgb(0%,0%,0%);fill-opacity:0.0117647;stroke:none;"/>
  </g>
</mask>
<clipPath id="clip36">
  <rect x="0" y="0" width="20" height="20"/>
</clipPath>
<g id="surface110" clip-path="url(#clip36)">
<path style=" stroke:none;fill-rule:evenodd;fill:rgb(84.313725%,88.235294%,99.215686%);fill-opacity:1;" d="M 18.867188 14.734375 C 18.910156 14.734375 18.957031 14.734375 19 14.734375 C 18.976562 14.824219 18.929688 14.824219 18.867188 14.734375 Z M 18.867188 14.734375 "/>
</g>
<mask id="mask36">
  <g filter="url(#alpha)">
<rect x="0" y="0" width="20" height="20" style="fill:rgb(0%,0%,0%);fill-opacity:0.0117647;stroke:none;"/>
  </g>
</mask>
<clipPath id="clip37">
  <rect x="0" y="0" width="20" height="20"/>
</clipPath>
<g id="surface113" clip-path="url(#clip37)">
<path style=" stroke:none;fill-rule:evenodd;fill:rgb(83.921569%,87.843137%,98.823529%);fill-opacity:1;" d="M 1 14.867188 C 1.042969 14.867188 1.089844 14.867188 1.132812 14.867188 C 1.109375 14.957031 1.0625 14.957031 1 14.867188 Z M 1 14.867188 "/>
</g>
<mask id="mask37">
  <g filter="url(#alpha)">
<rect x="0" y="0" width="20" height="20" style="fill:rgb(0%,0%,0%);fill-opacity:0.00784314;stroke:none;"/>
  </g>
</mask>
<clipPath id="clip38">
  <rect x="0" y="0" width="20" height="20"/>
</clipPath>
<g id="surface116" clip-path="url(#clip38)">
<path style=" stroke:none;fill-rule:evenodd;fill:rgb(83.921569%,87.843137%,98.823529%);fill-opacity:1;" d="M 18.734375 15 C 18.910156 15.089844 18.910156 15.089844 18.734375 15 Z M 18.734375 15 "/>
</g>
<mask id="mask38">
  <g filter="url(#alpha)">
<rect x="0" y="0" width="20" height="20" style="fill:rgb(0%,0%,0%);fill-opacity:0.00392157;stroke:none;"/>
  </g>
</mask>
<clipPath id="clip39">
  <rect x="0" y="0" width="20" height="20"/>
</clipPath>
<g id="surface119" clip-path="url(#clip39)">
<path style=" stroke:none;fill-rule:evenodd;fill:rgb(84.313725%,87.843137%,99.215686%);fill-opacity:1;" d="M 18.601562 15.132812 C 18.644531 15.132812 18.6875 15.132812 18.734375 15.132812 C 18.757812 15.265625 18.710938 15.355469 18.601562 15.398438 C 18.601562 15.3125 18.601562 15.222656 18.601562 15.132812 Z M 18.601562 15.132812 "/>
</g>
<mask id="mask39">
  <g filter="url(#alpha)">
<rect x="0" y="0" width="20" height="20" style="fill:rgb(0%,0%,0%);fill-opacity:0.00392157;stroke:none;"/>
  </g>
</mask>
<clipPath id="clip40">
  <rect x="0" y="0" width="20" height="20"/>
</clipPath>
<g id="surface122" clip-path="url(#clip40)">
<path style=" stroke:none;fill-rule:evenodd;fill:rgb(84.313725%,87.843137%,99.215686%);fill-opacity:1;" d="M 1.398438 15.265625 C 1.417969 15.363281 1.394531 15.453125 1.332031 15.535156 C 1.242188 15.410156 1.261719 15.320312 1.398438 15.265625 Z M 1.398438 15.265625 "/>
</g>
<mask id="mask40">
  <g filter="url(#alpha)">
<rect x="0" y="0" width="20" height="20" style="fill:rgb(0%,0%,0%);fill-opacity:0.0117647;stroke:none;"/>
  </g>
</mask>
<clipPath id="clip41">
  <rect x="0" y="0" width="20" height="20"/>
</clipPath>
<g id="surface125" clip-path="url(#clip41)">
<path style=" stroke:none;fill-rule:evenodd;fill:rgb(84.313725%,88.235294%,99.215686%);fill-opacity:1;" d="M 18.464844 15.398438 C 18.511719 15.398438 18.554688 15.398438 18.601562 15.398438 C 18.574219 15.488281 18.53125 15.488281 18.464844 15.398438 Z M 18.464844 15.398438 "/>
</g>
<mask id="mask41">
  <g filter="url(#alpha)">
<rect x="0" y="0" width="20" height="20" style="fill:rgb(0%,0%,0%);fill-opacity:0.00392157;stroke:none;"/>
  </g>
</mask>
<clipPath id="clip42">
  <rect x="0" y="0" width="20" height="20"/>
</clipPath>
<g id="surface128" clip-path="url(#clip42)">
<path style=" stroke:none;fill-rule:evenodd;fill:rgb(84.313725%,88.235294%,99.215686%);fill-opacity:1;" d="M 18.332031 15.535156 C 18.378906 15.535156 18.421875 15.535156 18.464844 15.535156 C 18.488281 15.664062 18.445312 15.753906 18.332031 15.800781 C 18.332031 15.710938 18.332031 15.621094 18.332031 15.535156 Z M 18.332031 15.535156 "/>
</g>
<mask id="mask42">
  <g filter="url(#alpha)">
<rect x="0" y="0" width="20" height="20" style="fill:rgb(0%,0%,0%);fill-opacity:0.00392157;stroke:none;"/>
  </g>
</mask>
<clipPath id="clip43">
  <rect x="0" y="0" width="20" height="20"/>
</clipPath>
<g id="surface131" clip-path="url(#clip43)">
<path style=" stroke:none;fill-rule:evenodd;fill:rgb(84.313725%,87.843137%,99.215686%);fill-opacity:1;" d="M 1.667969 15.667969 C 1.683594 15.765625 1.660156 15.855469 1.601562 15.933594 C 1.507812 15.808594 1.53125 15.71875 1.667969 15.667969 Z M 1.667969 15.667969 "/>
</g>
<mask id="mask43">
  <g filter="url(#alpha)">
<rect x="0" y="0" width="20" height="20" style="fill:rgb(0%,0%,0%);fill-opacity:0.0117647;stroke:none;"/>
  </g>
</mask>
<clipPath id="clip44">
  <rect x="0" y="0" width="20" height="20"/>
</clipPath>
<g id="surface134" clip-path="url(#clip44)">
<path style=" stroke:none;fill-rule:evenodd;fill:rgb(83.921569%,87.843137%,98.823529%);fill-opacity:1;" d="M 18.199219 15.800781 C 18.246094 15.800781 18.289062 15.800781 18.332031 15.800781 C 18.308594 15.890625 18.265625 15.890625 18.199219 15.800781 Z M 18.199219 15.800781 "/>
</g>
<mask id="mask44">
  <g filter="url(#alpha)">
<rect x="0" y="0" width="20" height="20" style="fill:rgb(0%,0%,0%);fill-opacity:0.00784314;stroke:none;"/>
  </g>
</mask>
<clipPath id="clip45">
  <rect x="0" y="0" width="20" height="20"/>
</clipPath>
<g id="surface137" clip-path="url(#clip45)">
<path style=" stroke:none;fill-rule:evenodd;fill:rgb(84.313725%,88.235294%,99.215686%);fill-opacity:1;" d="M 18.066406 15.933594 C 18.109375 15.933594 18.15625 15.933594 18.199219 15.933594 C 18.175781 16.023438 18.128906 16.023438 18.066406 15.933594 Z M 18.066406 15.933594 "/>
</g>
<mask id="mask45">
  <g filter="url(#alpha)">
<rect x="0" y="0" width="20" height="20" style="fill:rgb(0%,0%,0%);fill-opacity:0.00784314;stroke:none;"/>
  </g>
</mask>
<clipPath id="clip46">
  <rect x="0" y="0" width="20" height="20"/>
</clipPath>
<g id="surface140" clip-path="url(#clip46)">
<path style=" stroke:none;fill-rule:evenodd;fill:rgb(84.313725%,88.235294%,99.215686%);fill-opacity:1;" d="M 17.933594 16.199219 C 18.109375 16.289062 18.109375 16.289062 17.933594 16.199219 Z M 17.933594 16.199219 "/>
</g>
<mask id="mask46">
  <g filter="url(#alpha)">
<rect x="0" y="0" width="20" height="20" style="fill:rgb(0%,0%,0%);fill-opacity:0.0117647;stroke:none;"/>
  </g>
</mask>
<clipPath id="clip47">
  <rect x="0" y="0" width="20" height="20"/>
</clipPath>
<g id="surface143" clip-path="url(#clip47)">
<path style=" stroke:none;fill-rule:evenodd;fill:rgb(84.313725%,88.235294%,99.215686%);fill-opacity:1;" d="M 17.800781 16.332031 C 17.84375 16.332031 17.890625 16.332031 17.933594 16.332031 C 17.910156 16.421875 17.863281 16.421875 17.800781 16.332031 Z M 17.800781 16.332031 "/>
</g>
<mask id="mask47">
  <g filter="url(#alpha)">
<rect x="0" y="0" width="20" height="20" style="fill:rgb(0%,0%,0%);fill-opacity:0.0117647;stroke:none;"/>
  </g>
</mask>
<clipPath id="clip48">
  <rect x="0" y="0" width="20" height="20"/>
</clipPath>
<g id="surface146" clip-path="url(#clip48)">
<path style=" stroke:none;fill-rule:evenodd;fill:rgb(84.313725%,88.235294%,99.215686%);fill-opacity:1;" d="M 17.667969 16.464844 C 17.710938 16.464844 17.753906 16.464844 17.800781 16.464844 C 17.773438 16.554688 17.730469 16.554688 17.667969 16.464844 Z M 17.667969 16.464844 "/>
</g>
<mask id="mask48">
  <g filter="url(#alpha)">
<rect x="0" y="0" width="20" height="20" style="fill:rgb(0%,0%,0%);fill-opacity:0.0117647;stroke:none;"/>
  </g>
</mask>
<clipPath id="clip49">
  <rect x="0" y="0" width="20" height="20"/>
</clipPath>
<g id="surface149" clip-path="url(#clip49)">
<path style=" stroke:none;fill-rule:evenodd;fill:rgb(84.313725%,88.235294%,99.215686%);fill-opacity:1;" d="M 17.535156 16.601562 C 17.578125 16.601562 17.621094 16.601562 17.667969 16.601562 C 17.640625 16.6875 17.597656 16.6875 17.535156 16.601562 Z M 17.535156 16.601562 "/>
</g>
<mask id="mask49">
  <g filter="url(#alpha)">
<rect x="0" y="0" width="20" height="20" style="fill:rgb(0%,0%,0%);fill-opacity:0.00784314;stroke:none;"/>
  </g>
</mask>
<clipPath id="clip50">
  <rect x="0" y="0" width="20" height="20"/>
</clipPath>
<g id="surface152" clip-path="url(#clip50)">
<path style=" stroke:none;fill-rule:evenodd;fill:rgb(84.313725%,88.235294%,99.215686%);fill-opacity:1;" d="M 17.398438 16.734375 C 17.445312 16.734375 17.488281 16.734375 17.535156 16.734375 C 17.507812 16.824219 17.464844 16.824219 17.398438 16.734375 Z M 17.398438 16.734375 "/>
</g>
<mask id="mask50">
  <g filter="url(#alpha)">
<rect x="0" y="0" width="20" height="20" style="fill:rgb(0%,0%,0%);fill-opacity:0.00392157;stroke:none;"/>
  </g>
</mask>
<clipPath id="clip51">
  <rect x="0" y="0" width="20" height="20"/>
</clipPath>
<g id="surface155" clip-path="url(#clip51)">
<path style=" stroke:none;fill-rule:evenodd;fill:rgb(84.313725%,88.235294%,99.215686%);fill-opacity:1;" d="M 17.265625 16.867188 C 17.3125 16.867188 17.355469 16.867188 17.398438 16.867188 C 17.375 16.957031 17.332031 16.957031 17.265625 16.867188 Z M 17.265625 16.867188 "/>
</g>
<mask id="mask51">
  <g filter="url(#alpha)">
<rect x="0" y="0" width="20" height="20" style="fill:rgb(0%,0%,0%);fill-opacity:0.00392157;stroke:none;"/>
  </g>
</mask>
<clipPath id="clip52">
  <rect x="0" y="0" width="20" height="20"/>
</clipPath>
<g id="surface158" clip-path="url(#clip52)">
<path style=" stroke:none;fill-rule:evenodd;fill:rgb(83.921569%,87.843137%,98.823529%);fill-opacity:1;" d="M 17.132812 17 C 17.175781 17 17.222656 17 17.265625 17 C 17.242188 17.089844 17.199219 17.089844 17.132812 17 Z M 17.132812 17 "/>
</g>
<mask id="mask52">
  <g filter="url(#alpha)">
<rect x="0" y="0" width="20" height="20" style="fill:rgb(0%,0%,0%);fill-opacity:0.00392157;stroke:none;"/>
  </g>
</mask>
<clipPath id="clip53">
  <rect x="0" y="0" width="20" height="20"/>
</clipPath>
<g id="surface161" clip-path="url(#clip53)">
<path style=" stroke:none;fill-rule:evenodd;fill:rgb(83.921569%,87.843137%,98.823529%);fill-opacity:1;" d="M 17 17.132812 C 17.042969 17.132812 17.089844 17.132812 17.132812 17.132812 C 17.109375 17.222656 17.0625 17.222656 17 17.132812 Z M 17 17.132812 "/>
</g>
<mask id="mask53">
  <g filter="url(#alpha)">
<rect x="0" y="0" width="20" height="20" style="fill:rgb(0%,0%,0%);fill-opacity:0.00392157;stroke:none;"/>
  </g>
</mask>
<clipPath id="clip54">
  <rect x="0" y="0" width="20" height="20"/>
</clipPath>
<g id="surface164" clip-path="url(#clip54)">
<path style=" stroke:none;fill-rule:evenodd;fill:rgb(83.921569%,87.843137%,98.823529%);fill-opacity:1;" d="M 16.867188 17.265625 C 16.910156 17.265625 16.957031 17.265625 17 17.265625 C 16.976562 17.355469 16.929688 17.355469 16.867188 17.265625 Z M 16.867188 17.265625 "/>
</g>
<mask id="mask54">
  <g filter="url(#alpha)">
<rect x="0" y="0" width="20" height="20" style="fill:rgb(0%,0%,0%);fill-opacity:0.00784314;stroke:none;"/>
  </g>
</mask>
<clipPath id="clip55">
  <rect x="0" y="0" width="20" height="20"/>
</clipPath>
<g id="surface167" clip-path="url(#clip55)">
<path style=" stroke:none;fill-rule:evenodd;fill:rgb(83.921569%,87.843137%,98.823529%);fill-opacity:1;" d="M 16.734375 17.398438 C 16.777344 17.398438 16.824219 17.398438 16.867188 17.398438 C 16.84375 17.488281 16.796875 17.488281 16.734375 17.398438 Z M 16.734375 17.398438 "/>
</g>
<mask id="mask55">
  <g filter="url(#alpha)">
<rect x="0" y="0" width="20" height="20" style="fill:rgb(0%,0%,0%);fill-opacity:0.0117647;stroke:none;"/>
  </g>
</mask>
<clipPath id="clip56">
  <rect x="0" y="0" width="20" height="20"/>
</clipPath>
<g id="surface170" clip-path="url(#clip56)">
<path style=" stroke:none;fill-rule:evenodd;fill:rgb(83.921569%,87.843137%,98.823529%);fill-opacity:1;" d="M 16.601562 17.535156 C 16.644531 17.535156 16.6875 17.535156 16.734375 17.535156 C 16.707031 17.621094 16.664062 17.621094 16.601562 17.535156 Z M 16.601562 17.535156 "/>
</g>
<mask id="mask56">
  <g filter="url(#alpha)">
<rect x="0" y="0" width="20" height="20" style="fill:rgb(0%,0%,0%);fill-opacity:0.0117647;stroke:none;"/>
  </g>
</mask>
<clipPath id="clip57">
  <rect x="0" y="0" width="20" height="20"/>
</clipPath>
<g id="surface173" clip-path="url(#clip57)">
<path style=" stroke:none;fill-rule:evenodd;fill:rgb(84.313725%,88.235294%,99.215686%);fill-opacity:1;" d="M 16.464844 17.667969 C 16.511719 17.667969 16.554688 17.667969 16.601562 17.667969 C 16.574219 17.757812 16.53125 17.757812 16.464844 17.667969 Z M 16.464844 17.667969 "/>
</g>
<mask id="mask57">
  <g filter="url(#alpha)">
<rect x="0" y="0" width="20" height="20" style="fill:rgb(0%,0%,0%);fill-opacity:0.0117647;stroke:none;"/>
  </g>
</mask>
<clipPath id="clip58">
  <rect x="0" y="0" width="20" height="20"/>
</clipPath>
<g id="surface176" clip-path="url(#clip58)">
<path style=" stroke:none;fill-rule:evenodd;fill:rgb(84.313725%,88.235294%,99.215686%);fill-opacity:1;" d="M 16.332031 17.800781 C 16.378906 17.800781 16.421875 17.800781 16.464844 17.800781 C 16.441406 17.890625 16.398438 17.890625 16.332031 17.800781 Z M 16.332031 17.800781 "/>
</g>
<mask id="mask58">
  <g filter="url(#alpha)">
<rect x="0" y="0" width="20" height="20" style="fill:rgb(0%,0%,0%);fill-opacity:0.00784314;stroke:none;"/>
  </g>
</mask>
<clipPath id="clip59">
  <rect x="0" y="0" width="20" height="20"/>
</clipPath>
<g id="surface179" clip-path="url(#clip59)">
<path style=" stroke:none;fill-rule:evenodd;fill:rgb(84.313725%,88.235294%,99.215686%);fill-opacity:1;" d="M 16.332031 17.933594 C 16.246094 18.023438 16.246094 18.023438 16.332031 17.933594 Z M 16.332031 17.933594 "/>
</g>
<mask id="mask59">
  <g filter="url(#alpha)">
<rect x="0" y="0" width="20" height="20" style="fill:rgb(0%,0%,0%);fill-opacity:0.0117647;stroke:none;"/>
  </g>
</mask>
<clipPath id="clip60">
  <rect x="0" y="0" width="20" height="20"/>
</clipPath>
<g id="surface182" clip-path="url(#clip60)">
<path style=" stroke:none;fill-rule:evenodd;fill:rgb(84.313725%,88.235294%,99.215686%);fill-opacity:1;" d="M 3.933594 18.066406 C 3.933594 18.109375 3.933594 18.15625 3.933594 18.199219 C 3.84375 18.136719 3.84375 18.089844 3.933594 18.066406 Z M 3.933594 18.066406 "/>
</g>
<mask id="mask60">
  <g filter="url(#alpha)">
<rect x="0" y="0" width="20" height="20" style="fill:rgb(0%,0%,0%);fill-opacity:0.00784314;stroke:none;"/>
  </g>
</mask>
<clipPath id="clip61">
  <rect x="0" y="0" width="20" height="20"/>
</clipPath>
<g id="surface185" clip-path="url(#clip61)">
<path style=" stroke:none;fill-rule:evenodd;fill:rgb(84.313725%,88.235294%,99.215686%);fill-opacity:1;" d="M 15.933594 18.066406 C 16.109375 18.15625 16.109375 18.15625 15.933594 18.066406 Z M 15.933594 18.066406 "/>
</g>
<mask id="mask61">
  <g filter="url(#alpha)">
<rect x="0" y="0" width="20" height="20" style="fill:rgb(0%,0%,0%);fill-opacity:0.00392157;stroke:none;"/>
  </g>
</mask>
<clipPath id="clip62">
  <rect x="0" y="0" width="20" height="20"/>
</clipPath>
<g id="surface188" clip-path="url(#clip62)">
<path style=" stroke:none;fill-rule:evenodd;fill:rgb(84.313725%,88.235294%,99.215686%);fill-opacity:1;" d="M 3.933594 18.199219 C 4.109375 18.289062 4.109375 18.289062 3.933594 18.199219 Z M 3.933594 18.199219 "/>
</g>
<mask id="mask62">
  <g filter="url(#alpha)">
<rect x="0" y="0" width="20" height="20" style="fill:rgb(0%,0%,0%);fill-opacity:0.0117647;stroke:none;"/>
  </g>
</mask>
<clipPath id="clip63">
  <rect x="0" y="0" width="20" height="20"/>
</clipPath>
<g id="surface191" clip-path="url(#clip63)">
<path style=" stroke:none;fill-rule:evenodd;fill:rgb(84.313725%,88.235294%,99.215686%);fill-opacity:1;" d="M 15.800781 18.199219 C 15.84375 18.199219 15.890625 18.199219 15.933594 18.199219 C 15.910156 18.289062 15.863281 18.289062 15.800781 18.199219 Z M 15.800781 18.199219 "/>
</g>
<mask id="mask63">
  <g filter="url(#alpha)">
<rect x="0" y="0" width="20" height="20" style="fill:rgb(0%,0%,0%);fill-opacity:0.0117647;stroke:none;"/>
  </g>
</mask>
<clipPath id="clip64">
  <rect x="0" y="0" width="20" height="20"/>
</clipPath>
<g id="surface194" clip-path="url(#clip64)">
<path style=" stroke:none;fill-rule:evenodd;fill:rgb(84.313725%,88.235294%,99.215686%);fill-opacity:1;" d="M 4.332031 18.332031 C 4.332031 18.378906 4.332031 18.421875 4.332031 18.464844 C 4.242188 18.402344 4.242188 18.359375 4.332031 18.332031 Z M 4.332031 18.332031 "/>
</g>
<mask id="mask64">
  <g filter="url(#alpha)">
<rect x="0" y="0" width="20" height="20" style="fill:rgb(0%,0%,0%);fill-opacity:0.00392157;stroke:none;"/>
  </g>
</mask>
<clipPath id="clip65">
  <rect x="0" y="0" width="20" height="20"/>
</clipPath>
<g id="surface197" clip-path="url(#clip65)">
<path style=" stroke:none;fill-rule:evenodd;fill:rgb(84.313725%,87.843137%,99.215686%);fill-opacity:1;" d="M 15.535156 18.464844 C 15.535156 18.421875 15.535156 18.378906 15.535156 18.332031 C 15.621094 18.332031 15.710938 18.332031 15.800781 18.332031 C 15.753906 18.445312 15.664062 18.488281 15.535156 18.464844 Z M 15.535156 18.464844 "/>
</g>
<mask id="mask65">
  <g filter="url(#alpha)">
<rect x="0" y="0" width="20" height="20" style="fill:rgb(0%,0%,0%);fill-opacity:0.00784314;stroke:none;"/>
  </g>
</mask>
<clipPath id="clip66">
  <rect x="0" y="0" width="20" height="20"/>
</clipPath>
<g id="surface200" clip-path="url(#clip66)">
<path style=" stroke:none;fill-rule:evenodd;fill:rgb(84.313725%,88.235294%,99.215686%);fill-opacity:1;" d="M 4.332031 18.464844 C 4.511719 18.554688 4.511719 18.554688 4.332031 18.464844 Z M 4.332031 18.464844 "/>
</g>
<mask id="mask66">
  <g filter="url(#alpha)">
<rect x="0" y="0" width="20" height="20" style="fill:rgb(0%,0%,0%);fill-opacity:0.0117647;stroke:none;"/>
  </g>
</mask>
<clipPath id="clip67">
  <rect x="0" y="0" width="20" height="20"/>
</clipPath>
<g id="surface203" clip-path="url(#clip67)">
<path style=" stroke:none;fill-rule:evenodd;fill:rgb(84.313725%,88.235294%,99.215686%);fill-opacity:1;" d="M 15.398438 18.464844 C 15.445312 18.464844 15.488281 18.464844 15.535156 18.464844 C 15.507812 18.554688 15.464844 18.554688 15.398438 18.464844 Z M 15.398438 18.464844 "/>
</g>
<mask id="mask67">
  <g filter="url(#alpha)">
<rect x="0" y="0" width="20" height="20" style="fill:rgb(0%,0%,0%);fill-opacity:0.00392157;stroke:none;"/>
  </g>
</mask>
<clipPath id="clip68">
  <rect x="0" y="0" width="20" height="20"/>
</clipPath>
<g id="surface206" clip-path="url(#clip68)">
<path style=" stroke:none;fill-rule:evenodd;fill:rgb(84.313725%,87.843137%,99.215686%);fill-opacity:1;" d="M 15.132812 18.734375 C 15.132812 18.6875 15.132812 18.644531 15.132812 18.601562 C 15.222656 18.601562 15.3125 18.601562 15.398438 18.601562 C 15.355469 18.710938 15.265625 18.757812 15.132812 18.734375 Z M 15.132812 18.734375 "/>
</g>
<mask id="mask68">
  <g filter="url(#alpha)">
<rect x="0" y="0" width="20" height="20" style="fill:rgb(0%,0%,0%);fill-opacity:0.00784314;stroke:none;"/>
  </g>
</mask>
<clipPath id="clip69">
  <rect x="0" y="0" width="20" height="20"/>
</clipPath>
<g id="surface209" clip-path="url(#clip69)">
<path style=" stroke:none;fill-rule:evenodd;fill:rgb(84.705882%,88.627451%,99.607843%);fill-opacity:1;" d="M 5 18.734375 C 5 18.777344 5 18.824219 5 18.867188 C 4.644531 18.824219 4.644531 18.777344 5 18.734375 Z M 5 18.734375 "/>
</g>
<mask id="mask69">
  <g filter="url(#alpha)">
<rect x="0" y="0" width="20" height="20" style="fill:rgb(0%,0%,0%);fill-opacity:0.00784314;stroke:none;"/>
  </g>
</mask>
<clipPath id="clip70">
  <rect x="0" y="0" width="20" height="20"/>
</clipPath>
<g id="surface212" clip-path="url(#clip70)">
<path style=" stroke:none;fill-rule:evenodd;fill:rgb(84.313725%,88.235294%,99.215686%);fill-opacity:1;" d="M 15 18.734375 C 15.042969 18.734375 15.089844 18.734375 15.132812 18.734375 C 15.109375 18.824219 15.0625 18.824219 15 18.734375 Z M 15 18.734375 "/>
</g>
<mask id="mask70">
  <g filter="url(#alpha)">
<rect x="0" y="0" width="20" height="20" style="fill:rgb(0%,0%,0%);fill-opacity:0.00784314;stroke:none;"/>
  </g>
</mask>
<clipPath id="clip71">
  <rect x="0" y="0" width="20" height="20"/>
</clipPath>
<g id="surface215" clip-path="url(#clip71)">
<path style=" stroke:none;fill-rule:evenodd;fill:rgb(83.921569%,88.627451%,99.215686%);fill-opacity:1;" d="M 5 18.867188 C 5.179688 18.957031 5.179688 18.957031 5 18.867188 Z M 5 18.867188 "/>
</g>
<mask id="mask71">
  <g filter="url(#alpha)">
<rect x="0" y="0" width="20" height="20" style="fill:rgb(0%,0%,0%);fill-opacity:0.0117647;stroke:none;"/>
  </g>
</mask>
<clipPath id="clip72">
  <rect x="0" y="0" width="20" height="20"/>
</clipPath>
<g id="surface218" clip-path="url(#clip72)">
<path style=" stroke:none;fill-rule:evenodd;fill:rgb(83.921569%,87.843137%,98.823529%);fill-opacity:1;" d="M 14.734375 18.867188 C 14.910156 18.957031 14.910156 18.957031 14.734375 18.867188 Z M 14.734375 18.867188 "/>
</g>
<mask id="mask72">
  <g filter="url(#alpha)">
<rect x="0" y="0" width="20" height="20" style="fill:rgb(0%,0%,0%);fill-opacity:0.00784314;stroke:none;"/>
  </g>
</mask>
<clipPath id="clip73">
  <rect x="0" y="0" width="20" height="20"/>
</clipPath>
<g id="surface221" clip-path="url(#clip73)">
<path style=" stroke:none;fill-rule:evenodd;fill:rgb(84.313725%,88.235294%,98.823529%);fill-opacity:1;" d="M 5.265625 19 C 5.445312 19.089844 5.445312 19.089844 5.265625 19 Z M 5.265625 19 "/>
</g>
<mask id="mask73">
  <g filter="url(#alpha)">
<rect x="0" y="0" width="20" height="20" style="fill:rgb(0%,0%,0%);fill-opacity:0.00784314;stroke:none;"/>
  </g>
</mask>
<clipPath id="clip74">
  <rect x="0" y="0" width="20" height="20"/>
</clipPath>
<g id="surface224" clip-path="url(#clip74)">
<path style=" stroke:none;fill-rule:evenodd;fill:rgb(84.313725%,88.235294%,99.215686%);fill-opacity:1;" d="M 14.464844 19.132812 C 14.464844 19.089844 14.464844 19.042969 14.464844 19 C 14.554688 19 14.644531 19 14.734375 19 C 14.6875 19.113281 14.597656 19.15625 14.464844 19.132812 Z M 14.464844 19.132812 "/>
</g>
<mask id="mask74">
  <g filter="url(#alpha)">
<rect x="0" y="0" width="20" height="20" style="fill:rgb(0%,0%,0%);fill-opacity:0.00784314;stroke:none;"/>
  </g>
</mask>
<clipPath id="clip75">
  <rect x="0" y="0" width="20" height="20"/>
</clipPath>
<g id="surface227" clip-path="url(#clip75)">
<path style=" stroke:none;fill-rule:evenodd;fill:rgb(84.313725%,88.235294%,99.215686%);fill-opacity:1;" d="M 5.535156 19.132812 C 5.710938 19.222656 5.710938 19.222656 5.535156 19.132812 Z M 5.535156 19.132812 "/>
</g>
<mask id="mask75">
  <g filter="url(#alpha)">
<rect x="0" y="0" width="20" height="20" style="fill:rgb(0%,0%,0%);fill-opacity:0.00784314;stroke:none;"/>
  </g>
</mask>
<clipPath id="clip76">
  <rect x="0" y="0" width="20" height="20"/>
</clipPath>
<g id="surface230" clip-path="url(#clip76)">
<path style=" stroke:none;fill-rule:evenodd;fill:rgb(84.313725%,88.235294%,99.215686%);fill-opacity:1;" d="M 14.199219 19.265625 C 14.199219 19.222656 14.199219 19.175781 14.199219 19.132812 C 14.289062 19.132812 14.378906 19.132812 14.464844 19.132812 C 14.421875 19.246094 14.332031 19.289062 14.199219 19.265625 Z M 14.199219 19.265625 "/>
</g>
<mask id="mask76">
  <g filter="url(#alpha)">
<rect x="0" y="0" width="20" height="20" style="fill:rgb(0%,0%,0%);fill-opacity:0.00392157;stroke:none;"/>
  </g>
</mask>
<clipPath id="clip77">
  <rect x="0" y="0" width="20" height="20"/>
</clipPath>
<g id="surface233" clip-path="url(#clip77)">
<path style=" stroke:none;fill-rule:evenodd;fill:rgb(84.313725%,87.843137%,99.215686%);fill-opacity:1;" d="M 13.933594 19.265625 C 14.023438 19.265625 14.109375 19.265625 14.199219 19.265625 C 14.109375 19.445312 14.023438 19.445312 13.933594 19.265625 Z M 13.933594 19.265625 "/>
</g>
<mask id="mask77">
  <g filter="url(#alpha)">
<rect x="0" y="0" width="20" height="20" style="fill:rgb(0%,0%,0%);fill-opacity:0.00784314;stroke:none;"/>
  </g>
</mask>
<clipPath id="clip78">
  <rect x="0" y="0" width="20" height="20"/>
</clipPath>
<g id="surface236" clip-path="url(#clip78)">
<path style=" stroke:none;fill-rule:evenodd;fill:rgb(83.921569%,87.843137%,98.823529%);fill-opacity:1;" d="M 6.332031 19.398438 C 6.28125 19.535156 6.191406 19.558594 6.066406 19.464844 C 6.144531 19.40625 6.234375 19.382812 6.332031 19.398438 Z M 6.332031 19.398438 "/>
</g>
<mask id="mask78">
  <g filter="url(#alpha)">
<rect x="0" y="0" width="20" height="20" style="fill:rgb(0%,0%,0%);fill-opacity:0.00784314;stroke:none;"/>
  </g>
</mask>
<clipPath id="clip79">
  <rect x="0" y="0" width="20" height="20"/>
</clipPath>
<g id="surface239" clip-path="url(#clip79)">
<path style=" stroke:none;fill-rule:evenodd;fill:rgb(84.313725%,88.235294%,99.215686%);fill-opacity:1;" d="M 13.535156 19.535156 C 13.535156 19.488281 13.535156 19.445312 13.535156 19.398438 C 13.890625 19.445312 13.890625 19.488281 13.535156 19.535156 Z M 13.535156 19.535156 "/>
</g>
<mask id="mask79">
  <g filter="url(#alpha)">
<rect x="0" y="0" width="20" height="20" style="fill:rgb(0%,0%,0%);fill-opacity:0.00784314;stroke:none;"/>
  </g>
</mask>
<clipPath id="clip80">
  <rect x="0" y="0" width="20" height="20"/>
</clipPath>
<g id="surface242" clip-path="url(#clip80)">
<path style=" stroke:none;fill-rule:evenodd;fill:rgb(83.921569%,87.843137%,98.823529%);fill-opacity:1;" d="M 13.535156 19.535156 C 13.480469 19.671875 13.390625 19.691406 13.265625 19.601562 C 13.347656 19.539062 13.433594 19.515625 13.535156 19.535156 Z M 13.535156 19.535156 "/>
</g>
<mask id="mask80">
  <g filter="url(#alpha)">
<rect x="0" y="0" width="20" height="20" style="fill:rgb(0%,0%,0%);fill-opacity:0.00784314;stroke:none;"/>
  </g>
</mask>
<clipPath id="clip81">
  <rect x="0" y="0" width="20" height="20"/>
</clipPath>
<g id="surface245" clip-path="url(#clip81)">
<path style=" stroke:none;fill-rule:evenodd;fill:rgb(83.921569%,88.627451%,99.215686%);fill-opacity:1;" d="M 7.132812 19.667969 C 7.035156 19.808594 6.898438 19.832031 6.734375 19.734375 C 6.859375 19.667969 6.992188 19.648438 7.132812 19.667969 Z M 7.132812 19.667969 "/>
</g>
<mask id="mask81">
  <g filter="url(#alpha)">
<rect x="0" y="0" width="20" height="20" style="fill:rgb(0%,0%,0%);fill-opacity:0.00784314;stroke:none;"/>
  </g>
</mask>
<clipPath id="clip82">
  <rect x="0" y="0" width="20" height="20"/>
</clipPath>
<g id="surface248" clip-path="url(#clip82)">
<path style=" stroke:none;fill-rule:evenodd;fill:rgb(84.705882%,88.235294%,99.607843%);fill-opacity:1;" d="M 12.734375 19.800781 C 12.734375 19.753906 12.734375 19.710938 12.734375 19.667969 C 13.265625 19.710938 13.265625 19.753906 12.734375 19.800781 Z M 12.734375 19.800781 "/>
</g>
<mask id="mask82">
  <g filter="url(#alpha)">
<rect x="0" y="0" width="20" height="20" style="fill:rgb(0%,0%,0%);fill-opacity:0.00784314;stroke:none;"/>
  </g>
</mask>
<clipPath id="clip83">
  <rect x="0" y="0" width="20" height="20"/>
</clipPath>
<g id="surface251" clip-path="url(#clip83)">
<path style=" stroke:none;fill-rule:evenodd;fill:rgb(84.705882%,88.235294%,99.607843%);fill-opacity:1;" d="M 7.265625 19.933594 C 7.359375 19.8125 7.496094 19.769531 7.667969 19.800781 C 7.667969 19.84375 7.667969 19.890625 7.667969 19.933594 C 7.535156 19.933594 7.398438 19.933594 7.265625 19.933594 Z M 7.265625 19.933594 "/>
</g>
<mask id="mask83">
  <g filter="url(#alpha)">
<rect x="0" y="0" width="20" height="20" style="fill:rgb(0%,0%,0%);fill-opacity:0.00784314;stroke:none;"/>
  </g>
</mask>
<clipPath id="clip84">
  <rect x="0" y="0" width="20" height="20"/>
</clipPath>
<g id="surface254" clip-path="url(#clip84)">
<path style=" stroke:none;fill-rule:evenodd;fill:rgb(84.313725%,87.843137%,99.215686%);fill-opacity:1;" d="M 12.332031 19.933594 C 12.429688 19.8125 12.5625 19.769531 12.734375 19.800781 C 12.734375 19.84375 12.734375 19.890625 12.734375 19.933594 C 12.601562 19.933594 12.464844 19.933594 12.332031 19.933594 Z M 12.332031 19.933594 "/>
</g>
</defs>
<g id="surface1">
<use xlink:href="#surface5" mask="url(#mask0)"/>
<use xlink:href="#surface8" mask="url(#mask1)"/>
<use xlink:href="#surface11" mask="url(#mask2)"/>
<use xlink:href="#surface14" mask="url(#mask3)"/>
<use xlink:href="#surface17" mask="url(#mask4)"/>
<path style=" stroke:none;fill-rule:evenodd;fill:rgb(86.666667%,90.196078%,99.607843%);fill-opacity:1;" d="M 8.734375 0.867188 C 13.921875 0.660156 17.277344 3.015625 18.800781 7.933594 C 19.519531 13.480469 17.230469 17.101562 11.933594 18.800781 C 7.273438 19.472656 3.828125 17.761719 1.601562 13.667969 C 0.117188 9.660156 0.851562 6.171875 3.800781 3.199219 C 5.253906 1.996094 6.898438 1.21875 8.734375 0.867188 Z M 8.734375 0.867188 "/>
<use xlink:href="#surface20" mask="url(#mask5)"/>
<path style=" stroke:none;fill-rule:evenodd;fill:rgb(89.019608%,91.764706%,99.607843%);fill-opacity:1;" d="M 8.867188 1.265625 C 9.421875 1.441406 9.976562 1.441406 10.535156 1.265625 C 10.730469 1.574219 10.972656 1.621094 11.265625 1.398438 C 11.691406 1.582031 12.136719 1.691406 12.601562 1.734375 C 13.425781 2.109375 14.269531 2.53125 15.132812 3 C 16.621094 4.378906 17.710938 6.023438 18.398438 7.933594 C 18.488281 9.132812 18.488281 10.332031 18.398438 11.535156 C 17.691406 14.230469 16.179688 16.230469 13.867188 17.535156 C 11.777344 18.539062 9.667969 18.738281 7.535156 18.132812 C 3.085938 16.523438 1.066406 13.300781 1.464844 8.464844 C 1.839844 6.609375 2.726562 5.054688 4.132812 3.800781 C 4.179688 3.542969 4.292969 3.320312 4.464844 3.132812 C 4.847656 3.042969 5.179688 2.863281 5.464844 2.601562 C 5.511719 2.644531 5.554688 2.6875 5.601562 2.734375 C 5.664062 2.605469 5.6875 2.472656 5.667969 2.332031 C 6.246094 2.277344 6.757812 2.054688 7.199219 1.667969 C 7.363281 1.6875 7.519531 1.730469 7.667969 1.800781 C 8.0625 1.578125 8.464844 1.398438 8.867188 1.265625 Z M 8.867188 1.265625 "/>
<use xlink:href="#surface23" mask="url(#mask6)"/>
<path style=" stroke:none;fill-rule:evenodd;fill:rgb(92.156863%,94.117647%,99.215686%);fill-opacity:1;" d="M 8.734375 2.066406 C 10.855469 1.953125 12.8125 2.464844 14.601562 3.601562 C 16.0625 4.652344 17.019531 6.050781 17.464844 7.800781 C 17.554688 7.640625 17.621094 7.640625 17.667969 7.800781 C 17.601562 7.925781 17.558594 8.058594 17.535156 8.199219 C 17.730469 8.96875 17.863281 9.746094 17.933594 10.535156 C 17.746094 10.691406 17.636719 10.890625 17.601562 11.132812 C 17.046875 14.308594 15.246094 16.417969 12.199219 17.464844 C 11.402344 17.605469 10.601562 17.714844 9.800781 17.800781 C 6.515625 17.59375 4.136719 15.996094 2.667969 13 C 1.234375 8.503906 2.589844 5.058594 6.734375 2.667969 C 7.453125 2.554688 8.117188 2.355469 8.734375 2.066406 Z M 8.734375 2.066406 "/>
<use xlink:href="#surface26" mask="url(#mask7)"/>
<path style=" stroke:none;fill-rule:evenodd;fill:rgb(75.294118%,81.176471%,98.039216%);fill-opacity:1;" d="M 9.535156 3.265625 C 9.726562 3.375 9.949219 3.441406 10.199219 3.464844 C 9.160156 3.445312 9.046875 3.691406 9.867188 4.199219 C 10.1875 5.960938 10.699219 7.652344 11.398438 9.265625 C 11.398438 9.398438 11.398438 9.535156 11.398438 9.667969 C 11.265625 9.621094 11.179688 9.535156 11.132812 9.398438 C 10.074219 7.558594 9.097656 5.671875 8.199219 3.734375 C 8.34375 3.621094 8.476562 3.507812 8.601562 3.398438 C 8.882812 3.269531 9.191406 3.226562 9.535156 3.265625 Z M 9.535156 3.265625 "/>
<use xlink:href="#surface29" mask="url(#mask8)"/>
<use xlink:href="#surface32" mask="url(#mask9)"/>
<path style=" stroke:none;fill-rule:evenodd;fill:rgb(81.176471%,85.882353%,98.431373%);fill-opacity:1;" d="M 8.601562 3.398438 C 8.476562 3.507812 8.34375 3.621094 8.199219 3.734375 C 9.097656 5.671875 10.074219 7.558594 11.132812 9.398438 C 10.761719 9.113281 10.363281 8.890625 9.933594 8.734375 C 9.960938 8.300781 9.761719 8.035156 9.332031 7.933594 C 9.214844 7.570312 9.015625 7.261719 8.734375 7 C 8.164062 6.457031 7.542969 5.992188 6.867188 5.601562 C 6.925781 5.542969 6.972656 5.476562 7 5.398438 C 6.773438 5.042969 6.550781 4.6875 6.332031 4.332031 C 7.007812 3.839844 7.761719 3.53125 8.601562 3.398438 Z M 8.601562 3.398438 "/>
<use xlink:href="#surface35" mask="url(#mask10)"/>
<use xlink:href="#surface38" mask="url(#mask11)"/>
<use xlink:href="#surface41" mask="url(#mask12)"/>
<use xlink:href="#surface44" mask="url(#mask13)"/>
<path style=" stroke:none;fill-rule:evenodd;fill:rgb(58.039216%,68.627451%,96.862745%);fill-opacity:1;" d="M 13.667969 4.464844 C 14.015625 4.59375 14.28125 4.816406 14.464844 5.132812 C 14.203125 5.179688 14.113281 5.292969 14.199219 5.464844 C 13.535156 6.625 12.800781 7.757812 12 8.867188 C 11.847656 9.164062 11.738281 9.476562 11.667969 9.800781 C 11.621094 9.800781 11.578125 9.800781 11.535156 9.800781 C 12.011719 8.117188 12.546875 6.492188 13.132812 4.933594 C 13.042969 4.84375 12.957031 4.753906 12.867188 4.667969 C 13.125 4.558594 13.390625 4.492188 13.667969 4.464844 Z M 13.667969 4.464844 "/>
<use xlink:href="#surface47" mask="url(#mask14)"/>
<path style=" stroke:none;fill-rule:evenodd;fill:rgb(87.843137%,90.980392%,98.823529%);fill-opacity:1;" d="M 6.332031 4.332031 C 6.550781 4.6875 6.773438 5.042969 7 5.398438 C 6.972656 5.476562 6.925781 5.542969 6.867188 5.601562 C 7.542969 5.992188 8.164062 6.457031 8.734375 7 C 9.015625 7.261719 9.214844 7.570312 9.332031 7.933594 C 9.761719 8.035156 9.960938 8.300781 9.933594 8.734375 C 10.363281 8.890625 10.761719 9.113281 11.132812 9.398438 C 11.179688 9.535156 11.265625 9.621094 11.398438 9.667969 C 11.398438 9.753906 11.398438 9.84375 11.398438 9.933594 C 11.355469 9.933594 11.3125 9.933594 11.265625 9.933594 C 11.066406 9.695312 10.800781 9.605469 10.464844 9.667969 C 10.484375 9.550781 10.441406 9.460938 10.332031 9.398438 C 8.488281 8.589844 6.667969 7.742188 4.867188 6.867188 C 4.648438 7 4.515625 6.910156 4.464844 6.601562 C 4.417969 6.332031 4.484375 6.066406 4.667969 5.800781 C 5.128906 5.203125 5.683594 4.714844 6.332031 4.332031 Z M 6.332031 4.332031 "/>
<use xlink:href="#surface50" mask="url(#mask15)"/>
<path style=" stroke:none;fill-rule:evenodd;fill:rgb(53.72549%,65.098039%,96.470588%);fill-opacity:1;" d="M 14.464844 5.132812 C 14.875 5.410156 15.1875 5.765625 15.398438 6.199219 C 14.074219 7.257812 12.875 8.460938 11.800781 9.800781 C 11.753906 9.800781 11.710938 9.800781 11.667969 9.800781 C 11.738281 9.476562 11.847656 9.164062 12 8.867188 C 12.800781 7.757812 13.535156 6.625 14.199219 5.464844 C 14.113281 5.292969 14.203125 5.179688 14.464844 5.132812 Z M 14.464844 5.132812 "/>
<use xlink:href="#surface53" mask="url(#mask16)"/>
<use xlink:href="#surface56" mask="url(#mask17)"/>
<use xlink:href="#surface59" mask="url(#mask18)"/>
<use xlink:href="#surface62" mask="url(#mask19)"/>
<use xlink:href="#surface65" mask="url(#mask20)"/>
<path style=" stroke:none;fill-rule:evenodd;fill:rgb(70.196078%,77.647059%,97.647059%);fill-opacity:1;" d="M 9.535156 3.265625 C 10.574219 3.203125 11.550781 3.378906 12.464844 3.800781 C 12.152344 3.777344 11.84375 3.734375 11.535156 3.667969 C 11.324219 3.664062 11.148438 3.730469 11 3.867188 C 11.316406 5.644531 11.449219 7.445312 11.398438 9.265625 C 10.699219 7.652344 10.1875 5.960938 9.867188 4.199219 C 9.046875 3.691406 9.160156 3.445312 10.199219 3.464844 C 9.949219 3.441406 9.726562 3.375 9.535156 3.265625 Z M 9.535156 3.265625 "/>
<use xlink:href="#surface68" mask="url(#mask21)"/>
<use xlink:href="#surface71" mask="url(#mask22)"/>
<path style=" stroke:none;fill-rule:evenodd;fill:rgb(65.490196%,74.117647%,97.254902%);fill-opacity:1;" d="M 12.464844 3.800781 C 12.933594 3.921875 13.332031 4.144531 13.667969 4.464844 C 13.390625 4.492188 13.125 4.558594 12.867188 4.667969 C 12.957031 4.753906 13.042969 4.84375 13.132812 4.933594 C 12.546875 6.492188 12.011719 8.117188 11.535156 9.800781 C 11.535156 9.84375 11.535156 9.890625 11.535156 9.933594 C 11.488281 9.933594 11.445312 9.933594 11.398438 9.933594 C 11.398438 9.84375 11.398438 9.753906 11.398438 9.667969 C 11.398438 9.535156 11.398438 9.398438 11.398438 9.265625 C 11.449219 7.445312 11.316406 5.644531 11 3.867188 C 11.148438 3.730469 11.324219 3.664062 11.535156 3.667969 C 11.84375 3.734375 12.152344 3.777344 12.464844 3.800781 Z M 12.464844 3.800781 "/>
<path style=" stroke:none;fill-rule:evenodd;fill:rgb(45.490196%,59.215686%,95.686275%);fill-opacity:1;" d="M 15.398438 6.199219 C 16.128906 7.082031 16.527344 8.105469 16.601562 9.265625 C 16.496094 9.117188 16.429688 8.941406 16.398438 8.734375 C 16.367188 8.882812 16.300781 9.015625 16.199219 9.132812 C 16.054688 8.855469 15.832031 8.675781 15.535156 8.601562 C 14.285156 8.972656 13.039062 9.371094 11.800781 9.800781 C 12.875 8.460938 14.074219 7.257812 15.398438 6.199219 Z M 15.398438 6.199219 "/>
<path style=" stroke:none;fill-rule:evenodd;fill:rgb(97.254902%,98.039216%,99.215686%);fill-opacity:1;" d="M 10.464844 9.667969 C 10.800781 9.605469 11.066406 9.695312 11.265625 9.933594 C 8.601562 9.933594 5.933594 9.933594 3.265625 9.933594 C 3.113281 9.46875 3.09375 8.980469 3.199219 8.464844 C 3.289062 8.378906 3.378906 8.289062 3.464844 8.199219 C 5.792969 8.714844 8.128906 9.203125 10.464844 9.667969 Z M 10.464844 9.667969 "/>
<path style=" stroke:none;fill-rule:evenodd;fill:rgb(37.647059%,53.333333%,95.686275%);fill-opacity:1;" d="M 16.601562 9.265625 C 16.621094 9.933594 16.601562 10.601562 16.535156 11.265625 C 16.503906 11.433594 16.4375 11.566406 16.332031 11.667969 C 16.574219 11.058594 16.488281 10.503906 16.066406 10 C 14.566406 9.972656 13.054688 9.949219 11.535156 9.933594 C 11.535156 9.890625 11.535156 9.84375 11.535156 9.800781 C 11.578125 9.800781 11.621094 9.800781 11.667969 9.800781 C 11.710938 9.800781 11.753906 9.800781 11.800781 9.800781 C 13.039062 9.371094 14.285156 8.972656 15.535156 8.601562 C 15.832031 8.675781 16.054688 8.855469 16.199219 9.132812 C 16.300781 9.015625 16.367188 8.882812 16.398438 8.734375 C 16.429688 8.941406 16.496094 9.117188 16.601562 9.265625 Z M 16.601562 9.265625 "/>
<path style=" stroke:none;fill-rule:evenodd;fill:rgb(9.019608%,32.156863%,93.72549%);fill-opacity:1;" d="M 3.265625 10.066406 C 6.089844 10.023438 8.890625 10.066406 11.667969 10.199219 C 12.507812 11.523438 13.351562 12.855469 14.199219 14.199219 C 14.136719 14.332031 14.046875 14.441406 13.933594 14.535156 C 14.128906 14.628906 14.21875 14.785156 14.199219 15 C 12.800781 16.222656 11.15625 16.753906 9.265625 16.601562 C 8.667969 16.382812 8.046875 16.207031 7.398438 16.066406 C 4.804688 14.917969 3.425781 12.917969 3.265625 10.066406 Z M 3.265625 10.066406 "/>
<path style=" stroke:none;fill-rule:evenodd;fill:rgb(30.980392%,47.843137%,93.333333%);fill-opacity:1;" d="M 3.265625 10.066406 C 3.265625 10.023438 3.265625 9.976562 3.265625 9.933594 C 5.933594 9.933594 8.601562 9.933594 11.265625 9.933594 C 11.3125 9.933594 11.355469 9.933594 11.398438 9.933594 C 11.445312 9.933594 11.488281 9.933594 11.535156 9.933594 C 13.054688 9.949219 14.566406 9.972656 16.066406 10 C 16.488281 10.503906 16.574219 11.058594 16.332031 11.667969 C 16.285156 11.960938 16.195312 12.226562 16.066406 12.464844 C 15.988281 12.082031 15.921875 11.726562 15.867188 11.398438 C 15.824219 11.445312 15.777344 11.488281 15.734375 11.535156 C 15.628906 11.371094 15.496094 11.234375 15.332031 11.132812 C 14.269531 10.878906 13.226562 10.566406 12.199219 10.199219 C 12.023438 10.199219 11.84375 10.199219 11.667969 10.199219 C 8.890625 10.066406 6.089844 10.023438 3.265625 10.066406 Z M 3.265625 10.066406 "/>
<path style=" stroke:none;fill-rule:evenodd;fill:rgb(25.490196%,44.313725%,94.901961%);fill-opacity:1;" d="M 12.199219 10.199219 C 13.226562 10.566406 14.269531 10.878906 15.332031 11.132812 C 15.496094 11.234375 15.628906 11.371094 15.734375 11.535156 C 15.777344 11.488281 15.824219 11.445312 15.867188 11.398438 C 15.921875 11.726562 15.988281 12.082031 16.066406 12.464844 C 15.957031 12.863281 15.777344 13.21875 15.535156 13.535156 C 15.421875 13.167969 15.289062 12.808594 15.132812 12.464844 C 14.550781 12.398438 14.128906 12.085938 13.867188 11.535156 C 13.8125 11.59375 13.746094 11.640625 13.667969 11.667969 C 13.375 11.398438 13.0625 11.152344 12.734375 10.933594 C 12.476562 10.742188 12.296875 10.496094 12.199219 10.199219 Z M 12.199219 10.199219 "/>
<use xlink:href="#surface74" mask="url(#mask23)"/>
<path style=" stroke:none;fill-rule:evenodd;fill:rgb(18.823529%,39.215686%,94.117647%);fill-opacity:1;" d="M 11.667969 10.199219 C 11.84375 10.199219 12.023438 10.199219 12.199219 10.199219 C 12.296875 10.496094 12.476562 10.742188 12.734375 10.933594 C 13.0625 11.152344 13.375 11.398438 13.667969 11.667969 C 13.746094 11.640625 13.8125 11.59375 13.867188 11.535156 C 14.128906 12.085938 14.550781 12.398438 15.132812 12.464844 C 15.289062 12.808594 15.421875 13.167969 15.535156 13.535156 C 15.183594 14.105469 14.738281 14.59375 14.199219 15 C 14.21875 14.785156 14.128906 14.628906 13.933594 14.535156 C 14.046875 14.441406 14.136719 14.332031 14.199219 14.199219 C 13.351562 12.855469 12.507812 11.523438 11.667969 10.199219 Z M 11.667969 10.199219 "/>
<use xlink:href="#surface77" mask="url(#mask24)"/>
<use xlink:href="#surface80" mask="url(#mask25)"/>
<use xlink:href="#surface83" mask="url(#mask26)"/>
<use xlink:href="#surface86" mask="url(#mask27)"/>
<use xlink:href="#surface89" mask="url(#mask28)"/>
<use xlink:href="#surface92" mask="url(#mask29)"/>
<use xlink:href="#surface95" mask="url(#mask30)"/>
<use xlink:href="#surface98" mask="url(#mask31)"/>
<use xlink:href="#surface101" mask="url(#mask32)"/>
<use xlink:href="#surface104" mask="url(#mask33)"/>
<use xlink:href="#surface107" mask="url(#mask34)"/>
<use xlink:href="#surface110" mask="url(#mask35)"/>
<use xlink:href="#surface113" mask="url(#mask36)"/>
<use xlink:href="#surface116" mask="url(#mask37)"/>
<use xlink:href="#surface119" mask="url(#mask38)"/>
<use xlink:href="#surface122" mask="url(#mask39)"/>
<use xlink:href="#surface125" mask="url(#mask40)"/>
<use xlink:href="#surface128" mask="url(#mask41)"/>
<use xlink:href="#surface131" mask="url(#mask42)"/>
<use xlink:href="#surface134" mask="url(#mask43)"/>
<use xlink:href="#surface137" mask="url(#mask44)"/>
<path style=" stroke:none;fill-rule:evenodd;fill:rgb(27.45098%,40.392157%,85.098039%);fill-opacity:1;" d="M 7.398438 16.066406 C 8.046875 16.207031 8.667969 16.382812 9.265625 16.601562 C 8.582031 16.585938 7.960938 16.40625 7.398438 16.066406 Z M 7.398438 16.066406 "/>
<use xlink:href="#surface140" mask="url(#mask45)"/>
<use xlink:href="#surface143" mask="url(#mask46)"/>
<use xlink:href="#surface146" mask="url(#mask47)"/>
<use xlink:href="#surface149" mask="url(#mask48)"/>
<use xlink:href="#surface152" mask="url(#mask49)"/>
<use xlink:href="#surface155" mask="url(#mask50)"/>
<use xlink:href="#surface158" mask="url(#mask51)"/>
<use xlink:href="#surface161" mask="url(#mask52)"/>
<use xlink:href="#surface164" mask="url(#mask53)"/>
<use xlink:href="#surface167" mask="url(#mask54)"/>
<use xlink:href="#surface170" mask="url(#mask55)"/>
<use xlink:href="#surface173" mask="url(#mask56)"/>
<use xlink:href="#surface176" mask="url(#mask57)"/>
<use xlink:href="#surface179" mask="url(#mask58)"/>
<use xlink:href="#surface182" mask="url(#mask59)"/>
<use xlink:href="#surface185" mask="url(#mask60)"/>
<use xlink:href="#surface188" mask="url(#mask61)"/>
<use xlink:href="#surface191" mask="url(#mask62)"/>
<use xlink:href="#surface194" mask="url(#mask63)"/>
<use xlink:href="#surface197" mask="url(#mask64)"/>
<use xlink:href="#surface200" mask="url(#mask65)"/>
<use xlink:href="#surface203" mask="url(#mask66)"/>
<use xlink:href="#surface206" mask="url(#mask67)"/>
<use xlink:href="#surface209" mask="url(#mask68)"/>
<use xlink:href="#surface212" mask="url(#mask69)"/>
<use xlink:href="#surface215" mask="url(#mask70)"/>
<use xlink:href="#surface218" mask="url(#mask71)"/>
<use xlink:href="#surface221" mask="url(#mask72)"/>
<use xlink:href="#surface224" mask="url(#mask73)"/>
<use xlink:href="#surface227" mask="url(#mask74)"/>
<use xlink:href="#surface230" mask="url(#mask75)"/>
<use xlink:href="#surface233" mask="url(#mask76)"/>
<use xlink:href="#surface236" mask="url(#mask77)"/>
<use xlink:href="#surface239" mask="url(#mask78)"/>
<use xlink:href="#surface242" mask="url(#mask79)"/>
<use xlink:href="#surface245" mask="url(#mask80)"/>
<use xlink:href="#surface248" mask="url(#mask81)"/>
<use xlink:href="#surface251" mask="url(#mask82)"/>
<use xlink:href="#surface254" mask="url(#mask83)"/>
</g>
</svg>
