<svg width="24" height="24" viewBox="0 0 24 24" fill="none" xmlns="http://www.w3.org/2000/svg">
<rect x="2.00049" y="2" width="20" height="20" rx="10" fill="#F3BA2F"/>
<path fill-rule="evenodd" clip-rule="evenodd" d="M8.76463 10.67L12.0014 7.43326L15.2409 10.6728L17.1242 8.78954L12.0014 3.66675L6.88137 8.78676L8.76463 10.67ZM3.66724 12.0007L5.55 10.1179L7.43276 12.0007L5.55 13.8834L3.66724 12.0007ZM12.0014 16.5694L8.76461 13.3326L6.87858 15.2131L6.88135 15.2159L12.0014 20.3359L17.1242 15.2131L15.2409 13.3299L12.0014 16.5694ZM16.5684 12.002L18.4512 10.1192L20.3339 12.002L18.4512 13.8847L16.5684 12.002ZM12.0014 10.0903L13.9124 12.0013L12.0014 13.9151L10.0904 12.0041V11.9986L10.426 11.663L10.5896 11.5021L12.0014 10.0903Z" fill="white"/>
</svg>
