<svg width="24" height="24" viewBox="0 0 24 24" fill="none" xmlns="http://www.w3.org/2000/svg">
<path d="M2.00024 6.21053C2.00024 4.22567 2.00024 3.23323 2.65925 2.61662C3.31826 2 4.37892 2 6.50024 2C8.62156 2 9.68222 2 10.3412 2.61662C11.0002 3.23323 11.0002 4.22567 11.0002 6.21053V17.7895C11.0002 19.7743 11.0002 20.7668 10.3412 21.3834C9.68222 22 8.62156 22 6.50024 22C4.37892 22 3.31826 22 2.65925 21.3834C2.00024 20.7668 2.00024 19.7743 2.00024 17.7895V6.21053Z" fill="white"/>
<path d="M13.0002 15.4C13.0002 13.3258 13.0002 12.2887 13.6593 11.6444C14.3183 11 15.3789 11 17.5002 11C19.6216 11 20.6822 11 21.3412 11.6444C22.0002 12.2887 22.0002 13.3258 22.0002 15.4V17.6C22.0002 19.6742 22.0002 20.7113 21.3412 21.3556C20.6822 22 19.6216 22 17.5002 22C15.3789 22 14.3183 22 13.6593 21.3556C13.0002 20.7113 13.0002 19.6742 13.0002 17.6V15.4Z" fill="white"/>
<path d="M13.0002 5.5C13.0002 4.4128 13.0002 3.8692 13.1715 3.44041C13.3999 2.86867 13.8379 2.41443 14.3892 2.17761C14.8027 2 15.3269 2 16.3752 2H18.6252C19.6736 2 20.1978 2 20.6113 2.17761C21.1626 2.41443 21.6006 2.86867 21.829 3.44041C22.0002 3.8692 22.0002 4.4128 22.0002 5.5C22.0002 6.5872 22.0002 7.1308 21.829 7.55959C21.6006 8.13133 21.1626 8.58557 20.6113 8.82239C20.1978 9 19.6736 9 18.6252 9H16.3752C15.3269 9 14.8027 9 14.3892 8.82239C13.8379 8.58557 13.3999 8.13133 13.1715 7.55959C13.0002 7.1308 13.0002 6.5872 13.0002 5.5Z" fill="white"/>
</svg>
