<svg width="36" height="36" viewBox="0 0 36 36" fill="none" xmlns="http://www.w3.org/2000/svg">
<path d="M36.0002 17.9999C36.0002 27.9411 27.9414 36 18.0002 36C8.05892 36 0 27.9411 0 17.9999C0 8.05882 8.05892 0 18.0002 0C27.9413 0 36.0002 8.05882 36.0002 17.9999Z" fill="#F4F4F6"/>
<g opacity="0.8">
<path d="M17.9432 9.64795L17.832 10.0258V20.9913L17.9432 21.1023L23.0333 18.0936L17.9432 9.64795Z" fill="#090A0B"/>
<path d="M17.9417 9.64795L12.8516 18.0936L17.9417 21.1024V15.78V9.64795Z" fill="#090A0B"/>
<path d="M17.9416 22.7584L17.8789 22.8348V26.741L17.9416 26.9239L23.0347 19.7512L17.9416 22.7584Z" fill="#090A0B"/>
<path d="M17.9417 26.924V22.7584L12.8516 19.7512L17.9417 26.924Z" fill="#090A0B"/>
<path d="M17.9414 21.1023L23.0314 18.0936L17.9414 15.78V21.1023Z" fill="#090A0B"/>
<path d="M12.8516 18.0936L17.9416 21.1023V15.78L12.8516 18.0936Z" fill="#090A0B"/>
</g>
</svg>
