<svg width="15" height="15" viewBox="0 0 15 15" fill="none" xmlns="http://www.w3.org/2000/svg">
<path fill-rule="evenodd" clip-rule="evenodd" d="M5.83323 0.333313H6.4999C8.38552 0.333313 9.32833 0.333313 9.91411 0.919099C10.4999 1.50489 10.4999 2.44769 10.4999 4.33331V9.83333H11.5475C12.3496 9.83333 12.9999 10.4836 12.9999 11.2857V11.3333C12.9999 11.6095 13.2238 11.8333 13.4999 11.8333C13.776 11.8333 13.9999 11.6095 13.9999 11.3333V8.16665L13.1837 7.89457C12.7753 7.75846 12.4999 7.37632 12.4999 6.94589V5.33331C12.4999 4.78103 12.9476 4.33331 13.4999 4.33331H13.9999V4.08163C13.9999 3.95827 13.9997 3.91587 13.9975 3.87713C13.9753 3.48074 13.7968 3.10934 13.5012 2.84434C13.4723 2.81843 13.4393 2.79181 13.3429 2.71474L12.5209 2.0571C12.3053 1.88459 12.2703 1.56995 12.4428 1.35432C12.6153 1.13869 12.9299 1.10373 13.1456 1.27623L13.9784 1.9425C14.06 2.00774 14.1162 2.05275 14.1687 2.09973C14.6614 2.54141 14.9589 3.1604 14.996 3.82105C14.9999 3.89133 14.9999 3.96339 14.9999 4.06783V11.3333C14.9999 12.1618 14.3283 12.8333 13.4999 12.8333C12.6715 12.8333 11.9999 12.1618 11.9999 11.3333V11.2857C11.9999 11.0359 11.7974 10.8333 11.5475 10.8333H10.4999V13.1666H11.2489C11.525 13.1666 11.7489 13.3905 11.7489 13.6666C11.7489 13.9428 11.525 14.1666 11.2489 14.1666H1.16656C0.890423 14.1666 0.666565 13.9428 0.666565 13.6666C0.666565 13.3905 0.890423 13.1666 1.16656 13.1666H1.83323V4.33331C1.83323 2.44769 1.83323 1.50489 2.41902 0.919099C3.0048 0.333313 3.94761 0.333313 5.83323 0.333313ZM4.66656 9.83331C4.39042 9.83331 4.16656 10.0572 4.16656 10.3333C4.16656 10.6095 4.39042 10.8333 4.66656 10.8333H7.9999C8.27604 10.8333 8.4999 10.6095 8.4999 10.3333C8.4999 10.0572 8.27604 9.83331 7.9999 9.83331H4.66656ZM7.33323 2.99998H5.33323C4.70469 2.99998 4.39042 2.99998 4.19516 3.19524C3.9999 3.3905 3.9999 3.70477 3.9999 4.33331C3.9999 4.96185 3.9999 5.27612 4.19516 5.47138C4.39042 5.66665 4.70469 5.66665 5.33323 5.66665H7.33323C7.96177 5.66665 8.27604 5.66665 8.4713 5.47138C8.66656 5.27612 8.66656 4.96185 8.66656 4.33331C8.66656 3.70477 8.66656 3.3905 8.4713 3.19524C8.27604 2.99998 7.96177 2.99998 7.33323 2.99998Z" fill="#98A2B3"/>
</svg>
