<svg width="16" height="16" viewBox="0 0 16 16" fill="none" xmlns="http://www.w3.org/2000/svg">
<path d="M12 9.45809C12 11.6829 10.691 12.6592 9.67939 12.9884C9.46369 13.0586 9.32192 12.7956 9.45095 12.6016C9.89115 11.94 10.4 10.9306 10.4 9.98102C10.4 8.96099 9.57797 7.75674 8.93606 7.01397C8.78931 6.84416 8.53333 6.95652 8.52533 7.18526C8.49881 7.94309 8.38447 8.95701 7.89141 9.75164C7.81205 9.87954 7.64358 9.89015 7.55315 9.77054C7.3991 9.56677 7.24504 9.31505 7.09098 9.1162C7.008 9.00908 6.85802 9.00761 6.76231 9.1024C6.38913 9.47195 5.86667 10.0482 5.86667 10.7654C5.86667 11.2827 6.10239 11.9266 6.34538 12.4252C6.45573 12.6517 6.25102 12.9173 6.04071 12.7899C5.12279 12.2342 4 11.0828 4 9.45809C4 7.81272 6.15515 5.53341 6.97803 3.38003C7.10787 3.04023 7.50804 2.88056 7.78637 3.10231C9.47197 4.44522 12 7.04117 12 9.45809Z" fill="#508EFE"/>
</svg>
