<svg width="24" height="24" viewBox="0 0 24 24" fill="none" xmlns="http://www.w3.org/2000/svg">
<g clip-path="url(#clip0_82_13656)">
<path d="M12.0123 2.01562C17.529 2.01562 22.0006 6.48714 22.0006 12.0038C22.0006 17.5205 17.529 21.9881 12.0163 21.9881C6.49957 21.9881 2.03199 17.5166 2.03199 12.0038C2.02806 6.48714 6.49957 2.01562 12.0123 2.01562Z" fill="#8247E5"/>
<mask id="mask0_82_13656" style="mask-type:luminance" maskUnits="userSpaceOnUse" x="5" y="6" width="14" height="12">
<path d="M18.4878 6.33398H5.39941V17.8035H18.4878V6.33398Z" fill="white"/>
</mask>
<g mask="url(#mask0_82_13656)">
<path d="M15.2854 9.82708C15.0458 9.68955 14.7393 9.68955 14.4682 9.82708L12.5585 10.9587L11.2619 11.6778L9.3876 12.8055C9.14792 12.943 8.84143 12.943 8.57031 12.8055L7.1047 11.9135C6.86501 11.776 6.69605 11.5009 6.69605 11.1945V9.4813C6.69605 9.20625 6.83358 8.93513 7.1047 8.76224L8.57031 7.90566C8.81 7.76814 9.11648 7.76814 9.3876 7.90566L10.8532 8.79761C11.0929 8.93513 11.2619 9.21018 11.2619 9.51666V10.6483L12.5585 9.89387V8.73081C12.5585 8.45576 12.421 8.18464 12.1499 8.01175L9.42297 6.40075C9.18328 6.26323 8.8768 6.26323 8.60568 6.40075L5.81196 8.04712C5.54084 8.18464 5.40332 8.45969 5.40332 8.73081V11.9489C5.40332 12.2239 5.54084 12.4951 5.81196 12.6679L8.57424 14.2789C8.81393 14.4165 9.12041 14.4165 9.39153 14.2789L11.2658 13.1827L12.5625 12.4283L14.4367 11.332C14.6764 11.1945 14.9829 11.1945 15.254 11.332L16.7196 12.1886C16.9593 12.3261 17.1283 12.6011 17.1283 12.9076V14.6208C17.1283 14.8958 16.9907 15.167 16.7196 15.3398L15.2894 16.1964C15.0497 16.334 14.7432 16.334 14.4721 16.1964L13.0025 15.3398C12.7628 15.2023 12.5939 14.9273 12.5939 14.6208V13.5245L11.2972 14.2789V15.4106C11.2972 15.6856 11.4348 15.9567 11.7059 16.1296L14.4682 17.7406C14.7078 17.8782 15.0143 17.8782 15.2854 17.7406L18.0477 16.1296C18.2874 15.9921 18.4564 15.7171 18.4564 15.4106V12.1571C18.4564 11.8821 18.3188 11.611 18.0477 11.4381L15.2854 9.82708Z" fill="white"/>
</g>
</g>
<defs>
<clipPath id="clip0_82_13656">
<rect width="20" height="20" fill="white" transform="translate(2.00049 2)"/>
</clipPath>
</defs>
</svg>
