<svg width="48" height="48" viewBox="0 0 48 48" fill="none" xmlns="http://www.w3.org/2000/svg">
<g clip-path="url(#clip0_1930_1521)">
<path d="M24 0C37.2543 0 48 10.7457 48 24C48 37.2543 37.2543 48 24 48C10.7457 48 0 37.2543 0 24C0 10.7457 10.7457 0 24 0Z" fill="#101828"/>
<path d="M9.18839 37.2001C8.42456 37.1834 8.15535 36.7472 8.48508 36.0606C8.81065 35.3802 9.30943 34.8355 9.91674 34.3931C10.4239 34.0237 10.9498 34.0884 11.4694 34.3702C12.3042 34.823 12.9616 35.4804 13.523 36.2275C13.8673 36.6867 13.7087 37.0394 13.1181 37.0915C12.4253 37.1521 9.79987 37.2126 9.18839 37.2001Z" fill="url(#paint0_linear_1930_1521)"/>
<path d="M33.6471 18.5134C33.7535 19.5235 33.7097 20.519 33.2944 21.4643C33.1525 21.7857 32.9918 22.1676 32.5806 22.1551C32.1403 22.1405 32.0819 21.7085 31.9921 21.3788C31.4266 19.2981 30.5083 17.4198 28.8638 15.9694C28.3379 15.5061 27.7326 15.1325 27.2026 14.6692C26.8186 14.3332 26.3886 13.9283 26.6808 13.3461C26.9459 12.8181 27.4864 12.7576 28.0227 12.7868C31.0801 12.9516 33.2819 15.1972 33.6429 18.5113L33.6471 18.5134Z" fill="url(#paint1_linear_1930_1521)"/>
<path d="M36.6003 14.3812C36.6922 14.7568 36.7318 15.1429 36.7318 15.529C36.7318 16.3012 36.6421 17.0546 36.304 17.7683C36.1391 18.1168 35.8949 18.4612 35.4525 18.4048C35.0268 18.3506 35.0706 17.9332 35.008 17.6285C34.672 15.9923 34.2525 14.3916 32.9377 13.2208C32.5349 12.8619 32.0737 12.5697 31.6459 12.2379C31.4142 12.0563 31.12 11.8789 31.1784 11.5304C31.2473 11.1318 31.5854 10.9586 31.9339 10.8772C33.0129 10.6288 33.9875 10.9231 34.8389 11.5742C35.7885 12.3005 36.3249 13.2709 36.5941 14.3791L36.6003 14.3812Z" fill="url(#paint2_linear_1930_1521)"/>
<path d="M37.8927 19.9138C35.9289 19.4526 35.2214 21.3058 31.8865 26.1058C31.8865 26.1058 31.252 27.1806 29.9769 28.6018C27.9546 30.8536 24.3233 33.9715 19.06 35.0421C18.3192 35.1924 17.547 35.303 16.7414 35.3635C15.339 35.47 14.4479 35.3677 13.9512 35.111C14.4875 35.4637 15.7814 35.9771 15.7814 35.9771C21.0969 37.8512 26.9967 37.5861 32.1453 35.184C32.1453 35.184 32.1494 35.184 32.1515 35.182C42.2983 29.8623 39.8587 20.3771 37.8927 19.9138Z" fill="url(#paint3_linear_1930_1521)"/>
<path d="M30.3628 25.4191C30.3628 26.5231 29.3402 28.2156 26.9632 30.4528C23.7972 33.433 19.0599 35.0421 19.0599 35.0421C18.319 35.1923 17.5468 35.3029 16.7412 35.3634C15.3388 35.4699 14.4477 35.3676 13.951 35.1109C13.9176 35.0942 13.8863 35.0754 13.8529 35.0546C13.8508 35.0546 13.8466 35.0504 13.8425 35.0483C11.7492 33.7064 18.6007 28.9231 21.6936 26.8946C26.216 24.4883 29.3214 23.7182 30.0352 24.5113C30.248 24.7471 30.3607 25.0497 30.3607 25.417L30.3628 25.4191Z" fill="url(#paint4_linear_1930_1521)"/>
<path d="M23.5571 15.4267C25.0117 16.1906 22.1797 19.4587 18.4316 22.0904H18.4295C18.4295 22.0904 18.4128 22.105 18.4044 22.1092H18.4023C17.4736 22.7624 16.4886 23.3718 15.4994 23.8956C10.5011 26.5419 8.73556 24.1565 9.48895 23.0796C9.48895 23.0796 9.53069 23.0087 9.64547 22.8855C9.64756 22.8834 9.65173 22.8793 9.65591 22.8751L9.67886 22.8521C9.67886 22.8521 9.68095 22.85 9.68304 22.8459C9.91886 22.6038 10.4009 22.1947 11.3109 21.7168C12.7759 20.9447 12.9763 20.6462 12.9763 20.6462C13.4083 20.496 13.8903 20.2727 14.4246 19.9513C17.5488 18.0751 21.3596 14.7944 23.2879 15.3224C23.3756 15.3537 23.4632 15.3892 23.5509 15.4247C23.5509 15.4247 23.5529 15.4247 23.555 15.4247C23.555 15.4247 23.555 15.4247 23.5571 15.4247V15.4267Z" fill="url(#paint5_linear_1930_1521)"/>
<path d="M21.6936 26.8968C20.7983 27.3726 19.8467 27.9131 18.847 28.5183C12.8032 32.1789 10.662 30.5448 9.7959 29.7914C8.95903 29.063 8.65642 27.7295 8.63764 27.646C8.63764 27.6439 8.63764 27.6418 8.63764 27.6418C7.66303 24.4926 9.44529 23.0943 9.64356 22.8836C9.52877 23.0067 9.48703 23.0777 9.48703 23.0777C8.73364 24.1545 10.4992 26.5399 15.4975 23.8937C16.4867 23.3698 17.4717 22.7604 18.4004 22.1093H18.4025C18.4025 22.1093 18.415 22.0989 18.4276 22.0905H18.4296C18.8136 21.8213 22.7371 19.1145 24.9743 18.3465C27.2679 17.5597 28.6766 19.6947 28.7496 19.8095C28.7496 19.8116 28.7517 19.8137 28.7517 19.8137C29.814 21.527 30.3295 23.4679 30.3608 25.415C30.3608 25.0498 30.2481 24.7451 30.0352 24.5093C29.3215 23.7163 26.2161 24.4863 21.6936 26.8926V26.8968Z" fill="url(#paint6_linear_1930_1521)"/>
<path d="M23.2857 15.3225C21.3553 14.7945 17.5466 18.0752 14.4224 19.9514C13.8881 20.2727 13.4081 20.4961 12.9741 20.6463C12.4314 20.8341 11.9661 20.9051 11.5737 20.9051C11.5194 20.9051 11.4673 20.9051 11.4151 20.9009C11.4047 20.9009 11.3963 20.9009 11.388 20.9009C11.34 20.8988 11.2941 20.8947 11.2502 20.8905C11.2356 20.8905 11.221 20.8884 11.2064 20.8842C11.1626 20.878 11.1208 20.8738 11.0812 20.8654C11.0415 20.8592 11.0019 20.8508 10.9643 20.8425C10.9038 20.83 10.8474 20.8154 10.7932 20.7987C10.7535 20.7861 10.716 20.7736 10.6784 20.7611C10.6387 20.7465 10.6012 20.734 10.5657 20.7194C10.5657 20.7194 10.565 20.7194 10.5636 20.7194C10.5261 20.7047 10.4906 20.6881 10.4572 20.6714C10.0377 20.4752 9.8457 20.2268 9.8457 20.2268C10.3278 19.3691 10.933 18.5635 11.6614 17.8331C14.7396 14.7548 19.1911 13.8867 23.0436 15.2327C23.0436 15.2327 23.2064 15.2891 23.2878 15.3204L23.2857 15.3225Z" fill="url(#paint7_linear_1930_1521)"/>
</g>
<defs>
<linearGradient id="paint0_linear_1930_1521" x1="4.84752" y1="39.4039" x2="37.3185" y2="21.79" gradientUnits="userSpaceOnUse">
<stop offset="0.47" stop-color="#508EFE"/>
<stop offset="1" stop-color="#4DC7F6"/>
</linearGradient>
<linearGradient id="paint1_linear_1930_1521" x1="33.6012" y1="19.9826" x2="28.3629" y2="14.0974" gradientUnits="userSpaceOnUse">
<stop stop-color="#4DC7F6"/>
<stop offset="1" stop-color="#508EFE"/>
</linearGradient>
<linearGradient id="paint2_linear_1930_1521" x1="36.9322" y1="17.017" x2="31.696" y2="11.1318" gradientUnits="userSpaceOnUse">
<stop stop-color="#4DC7F6"/>
<stop offset="1" stop-color="#508EFE"/>
</linearGradient>
<linearGradient id="paint3_linear_1930_1521" x1="7.09761" y1="42.3924" x2="39.5686" y2="24.7785" gradientUnits="userSpaceOnUse">
<stop offset="0.5" stop-color="#508EFE"/>
<stop offset="1" stop-color="#4DC7F6"/>
</linearGradient>
<linearGradient id="paint4_linear_1930_1521" x1="15.2178" y1="34.5036" x2="31.231" y2="24.5989" gradientUnits="userSpaceOnUse">
<stop stop-color="#8556FC"/>
<stop offset="1" stop-color="#754FE1"/>
</linearGradient>
<linearGradient id="paint5_linear_1930_1521" x1="9.48895" y1="25.2396" x2="25.5022" y2="15.337" gradientUnits="userSpaceOnUse">
<stop stop-color="#754FE1"/>
<stop offset="1" stop-color="#8556FC"/>
</linearGradient>
<linearGradient id="paint6_linear_1930_1521" x1="9.94825" y1="29.7455" x2="28.4533" y2="19.4505" gradientUnits="userSpaceOnUse">
<stop stop-color="#8556FC"/>
<stop offset="1" stop-color="#E6A9FF"/>
</linearGradient>
<linearGradient id="paint7_linear_1930_1521" x1="6.02866" y1="22.702" x2="24.5337" y2="12.407" gradientUnits="userSpaceOnUse">
<stop stop-color="#8556FC"/>
<stop offset="1" stop-color="#E6A9FF"/>
</linearGradient>
<clipPath id="clip0_1930_1521">
<rect width="48" height="48" fill="white"/>
</clipPath>
</defs>
</svg>
