<svg width="24" height="24" viewBox="0 0 24 24" fill="none" xmlns="http://www.w3.org/2000/svg">
<path fill-rule="evenodd" clip-rule="evenodd" d="M3.00049 9.325C3.34662 4.66971 7.24381 1 12.0005 1C11.2506 1 10.583 1.32779 10.0338 1.82901C9.48728 2.32773 9.02547 3.0239 8.65194 3.84684C8.27622 4.67463 7.98437 5.64281 7.78683 6.6935C7.62848 7.53575 7.53212 8.42366 7.5 9.325H3.00049ZM3.00049 10.675H7.5C7.53212 11.5763 7.62848 12.4643 7.78683 13.3065C7.98437 14.3572 8.27622 15.3254 8.65194 16.1532C9.02547 16.9761 9.48728 17.6723 10.0338 18.171C10.583 18.6722 11.2506 19 12.0005 19C7.24381 19 3.34662 15.3303 3.00049 10.675Z" fill="#508EFE"/>
<path d="M12.0005 2.25581C11.7523 2.25581 11.4317 2.36113 11.0588 2.70137C10.6832 3.04413 10.3072 3.58133 9.97502 4.31323C9.64502 5.04028 9.37706 5.91796 9.19266 6.89877C9.04745 7.67118 8.95736 8.48997 8.92574 9.325H15.0752C15.0436 8.48997 14.9535 7.67118 14.8083 6.89878C14.6239 5.91797 14.356 5.04029 14.026 4.31324C13.6938 3.58133 13.3177 3.04414 12.9422 2.70138C12.5693 2.36113 12.2487 2.25581 12.0005 2.25581Z" fill="#508EFE"/>
<path d="M9.19266 13.1012C9.37706 14.082 9.64502 14.9597 9.97502 15.6868C10.3072 16.4187 10.6832 16.9559 11.0588 17.2986C11.4317 17.6389 11.7523 17.7442 12.0005 17.7442C12.2487 17.7442 12.5693 17.6389 12.9422 17.2986C13.3177 16.9559 13.6938 16.4187 14.026 15.6868C14.356 14.9597 14.6239 14.082 14.8083 13.1012C14.9535 12.3288 15.0436 11.51 15.0752 10.675H8.92574C8.95736 11.51 9.04745 12.3288 9.19266 13.1012Z" fill="#508EFE"/>
<path d="M12.0005 1C12.7503 1 13.418 1.32779 13.9672 1.82902C14.5137 2.32773 14.9755 3.0239 15.349 3.84684C15.7248 4.67463 16.0166 5.64281 16.2142 6.6935C16.3725 7.53575 16.4689 8.42366 16.501 9.325H21.0005C20.6544 4.66971 16.7572 1 12.0005 1Z" fill="#508EFE"/>
<path d="M16.2141 13.3065C16.0166 14.3572 15.7248 15.3254 15.349 16.1532C14.9755 16.9761 14.5137 17.6723 13.9672 18.171C13.418 18.6722 12.7503 19 12.0005 19C16.7572 19 20.6544 15.3303 21.0005 10.675H16.501C16.4689 11.5763 16.3725 12.4643 16.2141 13.3065Z" fill="#508EFE"/>
<path fill-rule="evenodd" clip-rule="evenodd" d="M4.21194 16.2675C4.45123 16.5731 4.40039 17.0171 4.09838 17.2592C3.56474 17.687 3.39584 18.064 3.39584 18.353C3.39584 18.5816 3.49842 18.8593 3.80574 19.1808C4.11619 19.5056 4.60125 19.8355 5.26148 20.1384C6.42822 20.6738 8.04097 21.0792 9.90747 21.2558V20.8235C9.90747 20.5466 10.0676 20.2952 10.3168 20.1807C10.5661 20.0663 10.8585 20.1099 11.0646 20.2923L12.4599 21.5276C12.6113 21.6616 12.6982 21.8553 12.6982 22.0588C12.6982 22.2624 12.6113 22.456 12.4599 22.59L11.0646 23.8253C10.8585 24.0077 10.5661 24.0514 10.3168 23.9369C10.0676 23.8225 9.90747 23.5711 9.90747 23.2941V22.6733C7.87502 22.4929 6.05562 22.053 4.68513 21.4241C3.92806 21.0767 3.27555 20.6569 2.80276 20.1623C2.32682 19.6644 2.00049 19.0532 2.00049 18.353C2.00049 17.4586 2.52762 16.7172 3.23184 16.1526C3.53385 15.9105 3.97265 15.962 4.21194 16.2675ZM19.789 16.2675C20.0283 15.962 20.4671 15.9105 20.7691 16.1526C21.4734 16.7172 22.0005 17.4586 22.0005 18.353C22.0005 19.65 20.9139 20.6217 19.6316 21.2719C18.2904 21.9518 16.4573 22.433 14.3964 22.6444C14.0131 22.6837 13.6708 22.4011 13.632 22.0132C13.5931 21.6254 13.8724 21.2791 14.2557 21.2398C16.207 21.0397 17.8622 20.5898 19.0065 20.0097C20.2094 19.3998 20.6051 18.7827 20.6051 18.353C20.6051 18.064 20.4362 17.687 19.9026 17.2592C19.6006 17.0171 19.5497 16.5731 19.789 16.2675Z" fill="#508EFE"/>
</svg>
