<svg width="24" height="24" viewBox="0 0 24 24" fill="none" xmlns="http://www.w3.org/2000/svg">
<g clip-path="url(#clip0_82_13646)">
<path d="M12.0005 22C17.5233 22 22.0005 17.5228 22.0005 12C22.0005 6.47715 17.5233 2 12.0005 2C6.47764 2 2.00049 6.47715 2.00049 12C2.00049 17.5228 6.47764 22 12.0005 22Z" fill="#FF0420"/>
<path d="M9.0844 14.656C8.4884 14.656 8.0004 14.516 7.6204 14.236C7.2444 13.952 7.0564 13.544 7.0564 13.02C7.0564 12.908 7.0684 12.776 7.0924 12.616C7.1564 12.256 7.2484 11.824 7.3684 11.316C7.7084 9.93995 8.5884 9.25195 10.0044 9.25195C10.3884 9.25195 10.7364 9.31595 11.0404 9.44795C11.3444 9.57195 11.5844 9.76395 11.7604 10.02C11.9364 10.272 12.0244 10.572 12.0244 10.92C12.0244 11.024 12.0124 11.156 11.9884 11.316C11.9124 11.76 11.8244 12.196 11.7164 12.616C11.5404 13.3 11.2404 13.816 10.8084 14.156C10.3804 14.492 9.8044 14.656 9.0844 14.656ZM9.1924 13.576C9.4724 13.576 9.7084 13.492 9.9044 13.328C10.1044 13.164 10.2484 12.912 10.3324 12.568C10.4484 12.096 10.5364 11.688 10.5964 11.336C10.6164 11.232 10.6284 11.124 10.6284 11.012C10.6284 10.556 10.3924 10.328 9.9164 10.328C9.6364 10.328 9.3964 10.412 9.1964 10.576C9.0004 10.74 8.8604 10.992 8.7764 11.336C8.6844 11.672 8.5964 12.08 8.5044 12.568C8.4844 12.668 8.4724 12.772 8.4724 12.884C8.4684 13.348 8.7124 13.576 9.1924 13.576Z" fill="white"/>
<path d="M12.3725 14.5839C12.3165 14.5839 12.2765 14.5679 12.2445 14.5319C12.2205 14.4919 12.2125 14.4479 12.2205 14.3959L13.2565 9.51588C13.2645 9.45988 13.2925 9.41588 13.3405 9.37988C13.3845 9.34388 13.4325 9.32788 13.4845 9.32788H15.4805C16.0365 9.32788 16.4805 9.44388 16.8165 9.67188C17.1565 9.90388 17.3285 10.2359 17.3285 10.6719C17.3285 10.7959 17.3125 10.9279 17.2845 11.0639C17.1605 11.6399 16.9085 12.0639 16.5245 12.3399C16.1485 12.6159 15.6325 12.7519 14.9765 12.7519H13.9645L13.6205 14.3959C13.6085 14.4519 13.5845 14.4959 13.5365 14.5319C13.4925 14.5679 13.4445 14.5839 13.3925 14.5839H12.3725ZM15.0285 11.7159C15.2405 11.7159 15.4205 11.6599 15.5765 11.5439C15.7365 11.4279 15.8405 11.2639 15.8925 11.0479C15.9085 10.9639 15.9165 10.8879 15.9165 10.8239C15.9165 10.6799 15.8725 10.5679 15.7885 10.4919C15.7045 10.4119 15.5565 10.3719 15.3525 10.3719H14.4525L14.1685 11.7159H15.0285Z" fill="white"/>
</g>
<defs>
<clipPath id="clip0_82_13646">
<rect width="20" height="20" fill="white" transform="translate(2.00049 2)"/>
</clipPath>
</defs>
</svg>
