<svg width="24" height="24" viewBox="0 0 24 24" fill="none" xmlns="http://www.w3.org/2000/svg">
<path fill-rule="evenodd" clip-rule="evenodd" d="M21.1909 12.0608C21.6287 12.6689 22.0002 13.1849 22.0002 14.0723C22.0002 15.2623 18.7402 17.3423 15.3402 18.3123H19.1002C19.7102 18.3123 19.8902 19.1623 19.3202 19.3923C17.4702 20.1623 14.4002 20.9423 12.1302 20.9423C9.69024 20.9423 6.56024 20.1623 4.69024 19.3923C4.12024 19.1623 4.30024 18.3123 4.91024 18.3123H8.66024C5.25024 17.3423 2.00024 15.2623 2.00024 14.0723C2.00024 13.0123 2.53024 12.2223 3.07024 11.6923C1.74024 9.31235 2.26024 7.72235 4.13024 6.66235C4.89024 4.01235 5.95024 3.48235 8.67024 3.48235C9.68024 2.56235 10.6402 2.03235 11.7002 2.00235C12.7702 1.96235 13.9302 2.43235 15.3302 3.48235C17.7902 3.48235 18.8402 4.01235 19.6002 6.40235C21.7302 7.98235 22.0002 9.31235 20.9302 11.6923C21.0181 11.8209 21.1058 11.9426 21.1909 12.0608ZM8.36024 15.4223C8.36024 17.4323 10.0002 19.0723 12.0102 19.0723C14.0302 19.0723 15.6602 17.4423 15.6602 15.4223C15.6602 13.4023 14.0202 11.7723 12.0102 11.7723C10.0002 11.7723 8.36024 13.4123 8.36024 15.4223ZM12.0003 17.7825C13.2703 17.7825 14.3003 16.7925 14.3703 15.5425C14.3903 14.2825 13.5703 13.0725 12.0003 13.0525C10.4203 13.0925 9.64026 14.2025 9.64026 15.5625C9.71026 16.8025 10.7303 17.7825 12.0003 17.7825Z" fill="white"/>
</svg>
