<svg width="20" height="20" viewBox="0 0 20 20" fill="none" xmlns="http://www.w3.org/2000/svg">
<path fill-rule="evenodd" clip-rule="evenodd" d="M11.5029 4.4444C11.5029 2.91028 12.7522 1.66663 14.2933 1.66663C15.8344 1.66663 17.0837 2.91028 17.0837 4.4444C17.0837 5.97853 15.8344 7.22218 14.2933 7.22218C13.5151 7.22218 12.8118 6.90492 12.3062 6.39452L8.44338 9.02459C8.4791 9.20203 8.4978 9.38534 8.4978 9.57261C8.4978 9.94347 8.42452 10.2979 8.29165 10.6219L12.5273 13.4048C13.008 13.0133 13.6231 12.7777 14.2933 12.7777C15.8344 12.7777 17.0837 14.0214 17.0837 15.5555C17.0837 17.0896 15.8344 18.3333 14.2933 18.3333C12.7522 18.3333 11.5029 17.0896 11.5029 15.5555C11.5029 15.1537 11.5889 14.7712 11.7434 14.4259L7.54205 11.6655C7.05196 12.0915 6.40999 12.3504 5.7074 12.3504C4.1663 12.3504 2.91699 11.1067 2.91699 9.57261C2.91699 8.03849 4.1663 6.79483 5.7074 6.79483C6.59358 6.79483 7.38243 7.20601 7.8932 7.84594L11.6369 5.29698C11.5498 5.02795 11.5029 4.74129 11.5029 4.4444Z" fill="white"/>
</svg>
