<svg width="24" height="24" viewBox="0 0 24 24" fill="none" xmlns="http://www.w3.org/2000/svg">
<rect x="2.00049" y="2" width="20" height="20" rx="10" fill="black"/>
<path d="M6.93819 14.7548C7.02998 14.667 7.15442 14.6177 7.28417 14.6177H19.2553C19.4733 14.6177 19.5825 14.8701 19.4282 15.0176L17.0628 17.2797C16.971 17.3674 16.8466 17.4168 16.7168 17.4167H4.7457C4.52764 17.4167 4.41847 17.1644 4.57271 17.0168L6.93819 14.7548Z" fill="url(#paint0_linear_82_13635)"/>
<path d="M6.93819 6.30383C7.02997 6.21605 7.15441 6.16674 7.28417 6.16675H19.2553C19.4733 6.16675 19.5825 6.41913 19.4282 6.56667L17.0628 8.82873C16.971 8.91649 16.8466 8.96579 16.7168 8.96579H4.7457C4.52764 8.96579 4.41847 8.71341 4.57271 8.5659L6.93819 6.30383Z" fill="url(#paint1_linear_82_13635)"/>
<path d="M17.0628 10.5024C16.971 10.4146 16.8466 10.3653 16.7168 10.3653H4.7457C4.52764 10.3653 4.41847 10.6177 4.57271 10.7652L6.93819 13.0273C7.02997 13.1151 7.15441 13.1644 7.28417 13.1644H19.2553C19.4733 13.1644 19.5825 12.912 19.4282 12.7644L17.0628 10.5024Z" fill="url(#paint2_linear_82_13635)"/>
<defs>
<linearGradient id="paint0_linear_82_13635" x1="14.6414" y1="3.08083" x2="6.91361" y2="18.5469" gradientUnits="userSpaceOnUse">
<stop stop-color="#00FFA3"/>
<stop offset="1" stop-color="#DC1FFF"/>
</linearGradient>
<linearGradient id="paint1_linear_82_13635" x1="14.6414" y1="3.08083" x2="6.91361" y2="18.5469" gradientUnits="userSpaceOnUse">
<stop stop-color="#00FFA3"/>
<stop offset="1" stop-color="#DC1FFF"/>
</linearGradient>
<linearGradient id="paint2_linear_82_13635" x1="14.6414" y1="3.08083" x2="6.91361" y2="18.5469" gradientUnits="userSpaceOnUse">
<stop stop-color="#00FFA3"/>
<stop offset="1" stop-color="#DC1FFF"/>
</linearGradient>
</defs>
</svg>
