<svg width="25" height="24" viewBox="0 0 25 24" fill="none" xmlns="http://www.w3.org/2000/svg">
<path fill-rule="evenodd" clip-rule="evenodd" d="M20.9105 9.86058C20.8559 9.8571 20.7964 9.85712 20.7348 9.85715L20.7194 9.85715H18.3015C16.3086 9.85715 14.6033 11.4382 14.6033 13.5C14.6033 15.5618 16.3086 17.1429 18.3015 17.1429H20.7194L20.7348 17.1429C20.7964 17.1429 20.8559 17.1429 20.9105 17.1394C21.72 17.0879 22.4359 16.4495 22.4961 15.5577C22.5001 15.4992 22.5 15.4362 22.5 15.3778L22.5 15.3619V11.6381L22.5 11.6222C22.5 11.5638 22.5001 11.5008 22.4961 11.4423C22.4359 10.5506 21.72 9.91209 20.9105 9.86058ZM18.0872 14.4714C18.6002 14.4714 19.0162 14.0365 19.0162 13.5C19.0162 12.9635 18.6002 12.5286 18.0872 12.5286C17.5741 12.5286 17.1581 12.9635 17.1581 13.5C17.1581 14.0365 17.5741 14.4714 18.0872 14.4714Z" fill="#454E68"/>
<path fill-rule="evenodd" clip-rule="evenodd" d="M20.7341 18.6C20.8778 18.5963 20.9866 18.7304 20.9476 18.8699C20.7541 19.562 20.447 20.1518 19.9542 20.6485C19.2329 21.3755 18.3183 21.6981 17.1882 21.8512C16.0902 22 14.6872 22 12.9158 22H10.8794C9.10803 22 7.70501 22 6.60697 21.8512C5.47692 21.6981 4.56227 21.3755 3.84096 20.6485C3.11964 19.9215 2.79953 18.9997 2.6476 17.8608C2.49997 16.7541 2.49999 15.3401 2.5 13.5548V13.4452C2.49998 11.6599 2.49997 10.2459 2.6476 9.13924C2.79953 8.00031 3.11964 7.07848 3.84096 6.35149C4.56227 5.62451 5.47692 5.30188 6.60697 5.14876C7.705 4.99997 9.10802 4.99999 10.8794 5L12.9158 5C14.6872 4.99998 16.0902 4.99997 17.1882 5.14876C18.3183 5.30188 19.2329 5.62451 19.9542 6.35149C20.447 6.84817 20.7541 7.43804 20.9476 8.13012C20.9866 8.26959 20.8778 8.40376 20.7341 8.4L18.3015 8.40001C15.5673 8.40001 13.1575 10.5769 13.1575 13.5C13.1575 16.4231 15.5673 18.6 18.3015 18.6L20.7341 18.6ZM6.11446 8.88572C5.71522 8.88572 5.39157 9.21191 5.39157 9.61429C5.39157 10.0167 5.71522 10.3429 6.11446 10.3429H9.96988C10.3691 10.3429 10.6928 10.0167 10.6928 9.61429C10.6928 9.21191 10.3691 8.88572 9.96988 8.88572H6.11446Z" fill="#454E68"/>
<path d="M8.27668 4.02439L10.2355 2.58126C11.2874 1.80625 12.7126 1.80625 13.7645 2.58126L15.7336 4.03197C14.9103 3.99995 13.9909 3.99998 12.9829 4H10.8123C9.89123 3.99998 9.0441 3.99996 8.27668 4.02439Z" fill="#454E68"/>
</svg>
